<svg width="1440" height="939" viewBox="0 0 1440 939" fill="none" xmlns="http://www.w3.org/2000/svg">
<g clip-path="url(#clip0_6273_1265)">
<g filter="url(#filter0_f_6273_1265)">
<ellipse cx="968" cy="-69.1866" rx="438.628" ry="260.385" transform="rotate(-90 968 -69.1866)" fill="url(#paint0_radial_6273_1265)"/>
</g>
<g opacity="0.6" filter="url(#filter1_f_6273_1265)">
<ellipse cx="-31.9999" cy="938.962" rx="548.036" ry="325.333" transform="rotate(-180 -31.9999 938.962)" fill="url(#paint1_radial_6273_1265)"/>
</g>
<path d="M84.8042 -323L-1969.5 1015M119.112 -323L-1712.14 1015M153.42 -323L-1485.34 1015M187.728 -323L-1282.33 1015M222.036 -323L-1098.13 1015M256.344 -323L-929.027 1015M290.651 -323L-772.182 1015M324.959 -323L-625.372 1015M359.267 -323L-486.837 1015M393.575 -323L-355.155 1015M427.883 -323L-229.16 1015M462.191 -323L-107.881 1015M496.499 -323L9.50396 1015M530.807 -323L123.7 1015M565.114 -323L235.325 1015M599.422 -323L344.928 1015M633.73 -323L453.007 1015M668.038 -323L560.023 1015M702.346 -323L666.41 1015M736.654 -323L772.589 1015M770.962 -323L878.977 1015M805.27 -323L985.992 1015M839.577 -323L1094.07 1015M873.885 -323L1203.67 1015M908.193 -323L1315.3 1015M942.501 -323L1429.5 1015M976.809 -323L1546.88 1015M1011.12 -323L1668.16 1015M1045.42 -323L1794.15 1015M1079.73 -323L1925.84 1015M1114.04 -323L2064.37 1015M1148.35 -323L2211.18 1015M1182.66 -323L2368.03 1015M1216.96 -323L2537.13 1015M1251.27 -323L2721.33 1015M1285.58 -323L2924.34 1015M1319.89 -323L3151.14 1015M1354.2 -323L3408.5 1015M50.4915 -322.997H1388.51M50.4823 -322.992H1388.52M50.4608 -322.979H1388.54M50.4155 -322.953H1388.58M50.3273 -322.902H1388.67M50.1672 -322.809H1388.83M49.8912 -322.65H1389.11M49.4365 -322.388H1389.56M48.716 -321.971H1390.28M47.6109 -321.334H1391.39M45.9631 -320.382H1393.04M43.5666 -318.998H1395.43M40.1573 -317.03H1398.84M35.4009 -314.285H1403.6M28.8801 -310.52H1410.12M20.0803 -305.439H1418.92M8.37269 -298.68H1430.63M-7.00288 -289.803H1446M-26.958 -278.282H1465.96M-52.5771 -263.491H1491.58M-85.1414 -244.69H1524.14M-126.154 -221.012H1565.15M-177.366 -191.444H1616.37M-240.812 -154.814H1679.81M-318.835 -109.768H1757.83M-414.125 -54.7516H1853.12M-529.756 12.0079H1968.76M-669.225 92.5297H2108.22M-836.495 189.102H2275.49M-1036.04 304.308H2475.04M-1272.88 441.05H2711.88M-1552.67 602.585H2991.67M-1881.7 792.551H3320.7M50.4964 -323L-2267 1015H3706L1388.5 -323H50.4964Z" stroke="url(#paint2_radial_6273_1265)"/>
<g opacity="0.7">
<path d="M203.117 383.209C202.544 383.946 202.545 384.077 203.118 384.847C202.381 384.273 202.25 384.273 201.481 384.846C202.053 384.109 202.053 383.978 201.48 383.208C202.217 383.782 202.364 383.765 203.117 383.209Z" fill="#9B70EE"/>
<path d="M325.5 351.473C324.927 352.21 324.927 352.341 325.5 353.111C324.764 352.538 324.633 352.538 323.863 353.111C324.436 352.374 324.436 352.243 323.863 351.473C324.6 352.046 324.747 352.03 325.5 351.473Z" fill="#9B70EE"/>
<path d="M268.822 303.799C268.25 304.536 268.25 304.667 268.823 305.437C268.086 304.864 267.955 304.864 267.186 305.437C267.758 304.7 267.758 304.569 267.185 303.799C267.922 304.372 268.069 304.356 268.822 303.799Z" fill="#9B70EE"/>
<path d="M129.682 264.237C129.109 264.974 129.109 265.105 129.682 265.875C128.945 265.302 128.814 265.302 128.045 265.875C128.618 265.138 128.618 265.007 128.045 264.237C128.781 264.81 128.929 264.794 129.682 264.237Z" fill="#9B70EE"/>
<path d="M125.762 364.384C125.189 365.121 125.189 365.252 125.762 366.022C125.025 365.448 124.894 365.448 124.125 366.022C124.698 365.284 124.698 365.153 124.125 364.383C124.861 364.957 125.009 364.941 125.762 364.384Z" fill="#9B70EE"/>
<path d="M161.111 349.852C161.446 349.518 161.988 349.518 162.322 349.853C162.657 350.187 162.657 350.73 162.323 351.064C161.988 351.399 161.446 351.399 161.112 351.064C160.777 350.729 160.777 350.187 161.111 349.852Z" fill="#9B70EE"/>
<path d="M129.551 201.273C129.885 200.938 130.427 200.938 130.762 201.273C131.096 201.608 131.096 202.15 130.762 202.485C130.428 202.819 129.886 202.819 129.551 202.484C129.217 202.15 129.217 201.607 129.551 201.273Z" fill="#9B70EE"/>
<path d="M227.789 381.425C228.123 381.091 228.665 381.091 229 381.425C229.334 381.76 229.334 382.303 229 382.637C228.666 382.972 228.124 382.971 227.789 382.637C227.455 382.302 227.455 381.76 227.789 381.425Z" fill="#9B70EE"/>
<path d="M68.625 311.631C68.9592 311.297 69.5014 311.297 69.8359 311.631C70.1703 311.966 70.1704 312.509 69.8362 312.843C69.5018 313.178 68.9597 313.177 68.6254 312.843C68.2909 312.508 68.2906 311.966 68.625 311.631Z" fill="#9B70EE"/>
<path d="M265.682 372.398C266.016 372.063 266.558 372.063 266.893 372.398C267.227 372.733 267.227 373.275 266.893 373.61C266.558 373.944 266.016 373.944 265.682 373.609C265.348 373.275 265.347 372.732 265.682 372.398Z" fill="#9B70EE"/>
<path d="M295.197 305.128C295.532 304.793 296.074 304.793 296.408 305.128C296.743 305.463 296.743 306.005 296.408 306.34C296.074 306.674 295.532 306.674 295.198 306.339C294.863 306.005 294.863 305.462 295.197 305.128Z" fill="#9B70EE"/>
<path d="M225.551 353.105C225.885 352.771 226.427 352.771 226.762 353.106C227.096 353.44 227.096 353.983 226.762 354.317C226.428 354.652 225.886 354.652 225.551 354.317C225.217 353.982 225.217 353.44 225.551 353.105Z" fill="#9B70EE"/>
<path d="M257.617 338.022C258.404 338.326 258.796 339.212 258.492 339.999C258.188 340.787 257.303 341.178 256.516 340.874C255.729 340.57 255.337 339.684 255.641 338.896C255.945 338.109 256.829 337.717 257.617 338.022Z" fill="#9B70EE" fill-opacity="0.2"/>
<path d="M175.097 261.465C175.693 260.868 176.661 260.868 177.258 261.466C177.855 262.063 177.855 263.031 177.258 263.628C176.662 264.225 175.694 264.225 175.097 263.627C174.5 263.03 174.5 262.062 175.097 261.465Z" fill="#9B70EE" fill-opacity="0.2"/>
<path d="M193.076 315.215C193.92 315.215 194.604 315.9 194.604 316.744C194.604 317.589 193.92 318.273 193.077 318.273C192.233 318.273 191.548 317.588 191.548 316.743C191.548 315.899 192.232 315.215 193.076 315.215Z" fill="#9B70EE" fill-opacity="0.2"/>
<path d="M176.432 409.879C176.766 409.545 177.308 409.545 177.643 409.88C177.977 410.214 177.977 410.757 177.643 411.091C177.308 411.426 176.766 411.426 176.432 411.091C176.098 410.756 176.097 410.214 176.432 409.879Z" fill="#9B70EE" fill-opacity="0.2"/>
<path d="M126.947 326.657C127.282 326.322 127.824 326.322 128.158 326.657C128.493 326.992 128.493 327.534 128.158 327.868C127.824 328.203 127.282 328.203 126.948 327.868C126.613 327.533 126.613 326.991 126.947 326.657Z" fill="#9B70EE" fill-opacity="0.2"/>
<path d="M214.975 226.014C214.402 226.751 214.402 226.882 214.975 227.652C214.238 227.079 214.107 227.079 213.338 227.652C213.911 226.915 213.911 226.784 213.338 226.014C214.074 226.587 214.222 226.571 214.975 226.014Z" fill="#9B70EE"/>
<path d="M90.0762 256.053C89.5034 256.79 89.5035 256.921 90.0766 257.691C89.3397 257.118 89.2088 257.118 88.4395 257.691C89.0123 256.954 89.0122 256.823 88.4391 256.053C89.1759 256.626 89.3233 256.61 90.0762 256.053Z" fill="#9B70EE"/>
<path d="M88.4415 197.339C87.8686 198.076 87.8687 198.207 88.4419 198.977C87.7049 198.404 87.574 198.404 86.8047 198.977C87.3776 198.24 87.3775 198.109 86.8043 197.339C87.5411 197.913 87.6885 197.896 88.4415 197.339Z" fill="#9B70EE"/>
<path d="M412.762 270.846C412.189 271.583 412.189 271.714 412.762 272.484C412.025 271.911 411.895 271.911 411.125 272.484C411.698 271.747 411.698 271.616 411.125 270.846C411.862 271.419 412.009 271.403 412.762 270.846Z" fill="#9B70EE"/>
<path d="M535.149 239.11C534.576 239.847 534.576 239.978 535.149 240.748C534.412 240.175 534.281 240.175 533.512 240.748C534.085 240.011 534.085 239.88 533.511 239.11C534.248 239.684 534.396 239.667 535.149 239.11Z" fill="#9B70EE"/>
<path d="M478.467 191.438C477.894 192.175 477.894 192.306 478.467 193.076C477.73 192.503 477.599 192.503 476.83 193.076C477.403 192.339 477.403 192.208 476.83 191.438C477.567 192.011 477.714 191.995 478.467 191.438Z" fill="#9B70EE"/>
<path d="M339.328 151.875C338.755 152.612 338.756 152.743 339.329 153.513C338.592 152.94 338.461 152.94 337.692 153.513C338.264 152.776 338.264 152.645 337.691 151.875C338.428 152.448 338.575 152.432 339.328 151.875Z" fill="#9B70EE"/>
<path d="M335.408 252.023C334.836 252.76 334.836 252.891 335.409 253.661C334.672 253.088 334.541 253.088 333.772 253.661C334.344 252.924 334.344 252.793 333.771 252.023C334.508 252.596 334.655 252.58 335.408 252.023Z" fill="#9B70EE"/>
<path d="M370.756 237.49C371.09 237.156 371.632 237.156 371.967 237.49C372.301 237.825 372.301 238.367 371.967 238.702C371.633 239.036 371.091 239.036 370.756 238.702C370.422 238.367 370.422 237.825 370.756 237.49Z" fill="#9B70EE"/>
<path d="M339.197 88.911C339.532 88.5765 340.074 88.5766 340.408 88.9113C340.743 89.246 340.743 89.7884 340.409 90.1229C340.074 90.4573 339.532 90.4573 339.198 90.1226C338.863 89.7879 338.863 89.2455 339.197 88.911Z" fill="#9B70EE"/>
<path d="M437.436 269.063C437.77 268.729 438.312 268.729 438.647 269.064C438.981 269.398 438.981 269.941 438.647 270.275C438.312 270.61 437.77 270.609 437.436 270.275C437.102 269.94 437.101 269.398 437.436 269.063Z" fill="#9B70EE"/>
<path d="M278.268 199.269C278.602 198.935 279.144 198.935 279.479 199.27C279.813 199.604 279.813 200.147 279.479 200.481C279.145 200.816 278.602 200.816 278.268 200.481C277.934 200.146 277.933 199.604 278.268 199.269Z" fill="#9B70EE"/>
<path d="M475.328 260.035C475.662 259.701 476.205 259.701 476.539 260.036C476.873 260.37 476.874 260.913 476.539 261.247C476.205 261.582 475.663 261.582 475.329 261.247C474.994 260.912 474.994 260.37 475.328 260.035Z" fill="#9B70EE"/>
<path d="M504.844 192.764C505.178 192.429 505.72 192.429 506.055 192.764C506.389 193.098 506.389 193.641 506.055 193.975C505.721 194.31 505.179 194.31 504.844 193.975C504.51 193.64 504.51 193.098 504.844 192.764Z" fill="#9B70EE"/>
<path d="M435.196 240.744C435.53 240.409 436.072 240.409 436.406 240.744C436.741 241.079 436.741 241.621 436.407 241.955C436.072 242.29 435.53 242.29 435.196 241.955C434.861 241.62 434.861 241.078 435.196 240.744Z" fill="#9B70EE"/>
<path d="M467.261 225.66C468.049 225.964 468.44 226.85 468.137 227.637C467.833 228.425 466.948 228.817 466.161 228.512C465.373 228.208 464.981 227.322 465.285 226.535C465.589 225.747 466.474 225.355 467.261 225.66Z" fill="#9B70EE" fill-opacity="0.2"/>
<path d="M384.743 149.102C385.34 148.505 386.308 148.506 386.904 149.103C387.501 149.7 387.502 150.668 386.905 151.265C386.308 151.862 385.341 151.862 384.744 151.265C384.147 150.667 384.147 149.699 384.743 149.102Z" fill="#9B70EE" fill-opacity="0.2"/>
<path d="M402.72 202.853C403.564 202.854 404.249 203.538 404.249 204.383C404.249 205.227 403.565 205.912 402.721 205.912C401.877 205.911 401.193 205.227 401.193 204.382C401.192 203.538 401.876 202.853 402.72 202.853Z" fill="#9B70EE" fill-opacity="0.2"/>
<path d="M386.078 297.516C386.413 297.182 386.955 297.182 387.289 297.517C387.624 297.851 387.624 298.394 387.289 298.728C386.955 299.063 386.413 299.063 386.079 298.728C385.744 298.393 385.744 297.851 386.078 297.516Z" fill="#9B70EE" fill-opacity="0.2"/>
<path d="M336.592 214.295C336.926 213.96 337.468 213.96 337.803 214.295C338.137 214.63 338.137 215.172 337.803 215.507C337.469 215.841 336.927 215.841 336.592 215.506C336.258 215.172 336.258 214.629 336.592 214.295Z" fill="#9B70EE" fill-opacity="0.2"/>
<path d="M424.621 113.653C424.048 114.39 424.048 114.521 424.622 115.291C423.885 114.717 423.754 114.717 422.985 115.291C423.557 114.554 423.557 114.422 422.984 113.652C423.721 114.226 423.868 114.21 424.621 113.653Z" fill="#9B70EE"/>
<path d="M299.725 143.691C299.152 144.428 299.152 144.559 299.725 145.33C298.988 144.756 298.857 144.756 298.088 145.329C298.661 144.592 298.661 144.461 298.088 143.691C298.824 144.265 298.972 144.248 299.725 143.691Z" fill="#9B70EE"/>
<path d="M298.086 84.9775C297.513 85.7145 297.513 85.8456 298.086 86.6157C297.35 86.0422 297.219 86.0421 296.449 86.6153C297.022 85.8782 297.022 85.7472 296.449 84.9771C297.186 85.5507 297.333 85.5343 298.086 84.9775Z" fill="#9B70EE"/>
<path d="M378.545 559.708C377.972 560.445 377.972 560.576 378.545 561.346C377.809 560.773 377.678 560.773 376.908 561.346C377.481 560.609 377.481 560.478 376.908 559.708C377.645 560.281 377.792 560.265 378.545 559.708Z" fill="#9B70EE"/>
<path d="M500.932 527.973C500.359 528.71 500.359 528.841 500.932 529.611C500.195 529.037 500.064 529.037 499.295 529.61C499.868 528.873 499.868 528.742 499.295 527.972C500.031 528.546 500.179 528.529 500.932 527.973Z" fill="#9B70EE"/>
<path d="M444.25 480.299C443.677 481.036 443.677 481.167 444.251 481.937C443.514 481.364 443.383 481.364 442.613 481.937C443.186 481.2 443.186 481.069 442.613 480.299C443.35 480.872 443.497 480.856 444.25 480.299Z" fill="#9B70EE"/>
<path d="M305.111 440.737C304.539 441.474 304.539 441.605 305.112 442.375C304.375 441.802 304.244 441.802 303.475 442.375C304.048 441.638 304.048 441.507 303.474 440.737C304.211 441.31 304.359 441.294 305.111 440.737Z" fill="#9B70EE"/>
<path d="M301.194 540.885C300.621 541.622 300.621 541.753 301.194 542.523C300.457 541.95 300.326 541.95 299.557 542.523C300.13 541.786 300.13 541.655 299.556 540.885C300.293 541.458 300.441 541.442 301.194 540.885Z" fill="#9B70EE"/>
<path d="M336.541 526.352C336.876 526.018 337.418 526.018 337.752 526.353C338.087 526.687 338.087 527.23 337.752 527.564C337.418 527.899 336.876 527.899 336.541 527.564C336.207 527.229 336.207 526.687 336.541 526.352Z" fill="#9B70EE"/>
<path d="M304.981 377.772C305.315 377.438 305.857 377.438 306.191 377.773C306.526 378.107 306.526 378.65 306.192 378.984C305.857 379.319 305.315 379.319 304.981 378.984C304.646 378.649 304.646 378.107 304.981 377.772Z" fill="#9B70EE"/>
<path d="M403.221 557.925C403.555 557.591 404.097 557.591 404.432 557.925C404.766 558.26 404.766 558.803 404.432 559.137C404.098 559.472 403.556 559.471 403.221 559.137C402.887 558.802 402.886 558.26 403.221 557.925Z" fill="#9B70EE"/>
<path d="M244.051 488.132C244.385 487.797 244.927 487.797 245.262 488.132C245.596 488.467 245.596 489.009 245.262 489.344C244.928 489.678 244.386 489.678 244.051 489.343C243.717 489.009 243.716 488.466 244.051 488.132Z" fill="#9B70EE"/>
<path d="M441.111 548.898C441.446 548.563 441.988 548.563 442.322 548.898C442.657 549.233 442.657 549.775 442.323 550.11C441.988 550.444 441.446 550.444 441.112 550.109C440.777 549.775 440.777 549.232 441.111 548.898Z" fill="#9B70EE"/>
<path d="M470.629 481.627C470.963 481.293 471.506 481.293 471.84 481.627C472.174 481.962 472.175 482.505 471.84 482.839C471.506 483.174 470.964 483.173 470.629 482.839C470.295 482.504 470.295 481.962 470.629 481.627Z" fill="#9B70EE"/>
<path d="M400.981 529.605C401.315 529.271 401.857 529.271 402.191 529.606C402.526 529.94 402.526 530.483 402.192 530.817C401.857 531.152 401.315 531.152 400.981 530.817C400.646 530.482 400.646 529.94 400.981 529.605Z" fill="#9B70EE"/>
<path d="M433.045 514.522C433.832 514.826 434.224 515.712 433.92 516.499C433.616 517.287 432.731 517.678 431.944 517.374C431.157 517.07 430.765 516.184 431.069 515.396C431.372 514.609 432.257 514.217 433.045 514.522Z" fill="#9B70EE" fill-opacity="0.2"/>
<path d="M350.525 437.965C351.121 437.368 352.089 437.368 352.686 437.966C353.283 438.563 353.283 439.531 352.686 440.128C352.09 440.725 351.122 440.725 350.525 440.127C349.928 439.53 349.928 438.562 350.525 437.965Z" fill="#9B70EE" fill-opacity="0.2"/>
<path d="M368.506 491.715C369.349 491.715 370.034 492.4 370.034 493.244C370.034 494.089 369.35 494.773 368.506 494.773C367.662 494.773 366.978 494.088 366.978 493.243C366.978 492.399 367.662 491.715 368.506 491.715Z" fill="#9B70EE" fill-opacity="0.2"/>
<path d="M351.86 586.377C352.194 586.043 352.736 586.043 353.07 586.378C353.405 586.712 353.405 587.255 353.071 587.589C352.736 587.924 352.194 587.924 351.86 587.589C351.525 587.254 351.525 586.712 351.86 586.377Z" fill="#9B70EE" fill-opacity="0.2"/>
<path d="M302.375 503.157C302.709 502.823 303.252 502.823 303.586 503.157C303.92 503.492 303.92 504.035 303.586 504.369C303.252 504.704 302.71 504.703 302.375 504.369C302.041 504.034 302.041 503.492 302.375 503.157Z" fill="#9B70EE" fill-opacity="0.2"/>
<path d="M390.403 402.514C389.83 403.251 389.83 403.382 390.403 404.152C389.666 403.578 389.535 403.578 388.766 404.151C389.339 403.414 389.339 403.283 388.765 402.513C389.502 403.087 389.65 403.07 390.403 402.514Z" fill="#9B70EE"/>
<path d="M265.506 432.553C264.933 433.29 264.933 433.421 265.506 434.191C264.769 433.617 264.639 433.617 263.869 434.19C264.442 433.453 264.442 433.322 263.869 432.552C264.606 433.126 264.753 433.109 265.506 432.553Z" fill="#9B70EE"/>
<path d="M263.871 373.839C263.298 374.576 263.298 374.707 263.872 375.477C263.135 374.904 263.004 374.903 262.235 375.477C262.807 374.74 262.807 374.609 262.234 373.838C262.971 374.412 263.118 374.396 263.871 373.839Z" fill="#9B70EE"/>
<path d="M588.186 447.346C587.613 448.083 587.613 448.214 588.186 448.984C587.449 448.41 587.318 448.41 586.549 448.984C587.122 448.246 587.122 448.115 586.548 447.345C587.285 447.919 587.433 447.902 588.186 447.346Z" fill="#9B70EE"/>
<path d="M710.57 415.609C709.997 416.346 709.998 416.477 710.571 417.248C709.834 416.674 709.703 416.674 708.934 417.247C709.506 416.51 709.506 416.379 708.933 415.609C709.67 416.183 709.817 416.166 710.57 415.609Z" fill="#9B70EE"/>
<path d="M653.891 367.935C653.318 368.672 653.318 368.803 653.891 369.573C653.154 369 653.023 369 652.254 369.573C652.827 368.836 652.827 368.705 652.253 367.935C652.99 368.508 653.138 368.492 653.891 367.935Z" fill="#9B70EE"/>
<path d="M514.75 328.373C514.177 329.11 514.177 329.241 514.75 330.011C514.013 329.438 513.883 329.438 513.113 330.011C513.686 329.274 513.686 329.143 513.113 328.373C513.85 328.946 513.997 328.93 514.75 328.373Z" fill="#9B70EE"/>
<path d="M510.832 428.52C510.259 429.257 510.259 429.389 510.832 430.159C510.095 429.585 509.965 429.585 509.195 430.158C509.768 429.421 509.768 429.29 509.195 428.52C509.932 429.094 510.079 429.077 510.832 428.52Z" fill="#9B70EE"/>
<path d="M546.178 413.986C546.512 413.652 547.054 413.652 547.389 413.986C547.723 414.321 547.723 414.864 547.389 415.198C547.055 415.533 546.513 415.532 546.178 415.198C545.844 414.863 545.843 414.321 546.178 413.986Z" fill="#9B70EE"/>
<path d="M514.619 265.41C514.953 265.076 515.495 265.076 515.83 265.41C516.164 265.745 516.165 266.287 515.83 266.622C515.496 266.956 514.954 266.956 514.619 266.622C514.285 266.287 514.285 265.745 514.619 265.41Z" fill="#9B70EE"/>
<path d="M612.857 445.562C613.192 445.228 613.734 445.228 614.068 445.563C614.403 445.897 614.403 446.44 614.069 446.774C613.734 447.109 613.192 447.109 612.858 446.774C612.523 446.439 612.523 445.897 612.857 445.562Z" fill="#9B70EE"/>
<path d="M453.689 375.767C454.024 375.433 454.566 375.433 454.9 375.768C455.235 376.102 455.235 376.645 454.901 376.979C454.566 377.314 454.024 377.314 453.69 376.979C453.355 376.644 453.355 376.102 453.689 375.767Z" fill="#9B70EE"/>
<path d="M650.75 436.535C651.084 436.2 651.626 436.201 651.961 436.535C652.295 436.87 652.295 437.412 651.961 437.747C651.627 438.081 651.085 438.081 650.75 437.747C650.416 437.412 650.416 436.869 650.75 436.535Z" fill="#9B70EE"/>
<path d="M680.266 369.263C680.6 368.928 681.142 368.928 681.477 369.263C681.811 369.598 681.811 370.14 681.477 370.475C681.143 370.809 680.6 370.809 680.266 370.475C679.931 370.14 679.931 369.597 680.266 369.263Z" fill="#9B70EE"/>
<path d="M610.619 417.241C610.953 416.906 611.495 416.906 611.83 417.241C612.164 417.576 612.164 418.118 611.83 418.452C611.496 418.787 610.954 418.787 610.619 418.452C610.285 418.117 610.285 417.575 610.619 417.241Z" fill="#9B70EE"/>
<path d="M642.681 402.157C643.468 402.462 643.86 403.347 643.556 404.135C643.252 404.923 642.368 405.314 641.58 405.01C640.793 404.705 640.401 403.82 640.705 403.032C641.009 402.245 641.894 401.853 642.681 402.157Z" fill="#9B70EE" fill-opacity="0.2"/>
<path d="M560.167 325.602C560.764 325.005 561.731 325.005 562.328 325.602C562.925 326.2 562.925 327.168 562.329 327.765C561.732 328.362 560.765 328.362 560.168 327.764C559.571 327.167 559.571 326.199 560.167 325.602Z" fill="#9B70EE" fill-opacity="0.2"/>
<path d="M578.144 379.351C578.988 379.351 579.672 380.036 579.672 380.88C579.673 381.725 578.989 382.409 578.145 382.409C577.301 382.409 576.617 381.724 576.616 380.88C576.616 380.035 577.3 379.351 578.144 379.351Z" fill="#9B70EE" fill-opacity="0.2"/>
<path d="M561.5 474.014C561.834 473.68 562.376 473.68 562.711 474.014C563.045 474.349 563.045 474.891 562.711 475.226C562.377 475.56 561.835 475.56 561.5 475.226C561.166 474.891 561.166 474.349 561.5 474.014Z" fill="#9B70EE" fill-opacity="0.2"/>
<path d="M512.012 390.795C512.346 390.461 512.888 390.461 513.223 390.796C513.557 391.13 513.557 391.673 513.223 392.007C512.888 392.342 512.347 392.342 512.012 392.007C511.678 391.672 511.677 391.13 512.012 390.795Z" fill="#9B70EE" fill-opacity="0.2"/>
<path d="M600.041 290.149C599.468 290.886 599.468 291.017 600.041 291.787C599.304 291.214 599.174 291.214 598.404 291.787C598.977 291.05 598.977 290.919 598.404 290.148C599.141 290.722 599.288 290.706 600.041 290.149Z" fill="#9B70EE"/>
<path d="M475.144 320.188C474.572 320.925 474.572 321.056 475.145 321.827C474.408 321.253 474.277 321.253 473.508 321.826C474.081 321.089 474.081 320.958 473.507 320.188C474.244 320.762 474.392 320.745 475.144 320.188Z" fill="#9B70EE"/>
<path d="M473.508 261.476C472.935 262.213 472.935 262.344 473.508 263.114C472.771 262.541 472.64 262.541 471.871 263.114C472.444 262.377 472.444 262.246 471.871 261.476C472.607 262.049 472.755 262.033 473.508 261.476Z" fill="#9B70EE"/>
<path d="M903.118 288.792C902.545 288.055 902.545 287.924 903.118 287.154C902.381 287.727 902.25 287.727 901.481 287.154C902.054 287.891 902.054 288.022 901.481 288.792C902.217 288.219 902.365 288.235 903.118 288.792Z" fill="#9B70EE"/>
<path d="M1025.5 320.526C1024.93 319.789 1024.93 319.658 1025.51 318.888C1024.77 319.461 1024.64 319.461 1023.87 318.888C1024.44 319.625 1024.44 319.756 1023.87 320.526C1024.6 319.953 1024.75 319.969 1025.5 320.526Z" fill="#9B70EE"/>
<path d="M968.823 368.2C968.25 367.463 968.25 367.332 968.823 366.562C968.086 367.135 967.955 367.135 967.186 366.562C967.759 367.299 967.759 367.43 967.186 368.2C967.922 367.627 968.07 367.643 968.823 368.2Z" fill="#9B70EE"/>
<path d="M829.682 407.762C829.109 407.025 829.109 406.894 829.682 406.124C828.946 406.698 828.815 406.698 828.045 406.124C828.618 406.862 828.618 406.993 828.045 407.763C828.782 407.189 828.929 407.205 829.682 407.762Z" fill="#9B70EE"/>
<path d="M825.762 307.614C825.189 306.877 825.189 306.746 825.763 305.976C825.026 306.55 824.895 306.55 824.125 305.977C824.698 306.714 824.698 306.845 824.125 307.615C824.862 307.041 825.009 307.058 825.762 307.614Z" fill="#9B70EE"/>
<path d="M861.112 322.148C861.446 322.482 861.988 322.482 862.323 322.147C862.657 321.813 862.657 321.27 862.323 320.936C861.989 320.601 861.447 320.601 861.112 320.936C860.778 321.271 860.778 321.813 861.112 322.148Z" fill="#9B70EE"/>
<path d="M829.555 470.727C829.889 471.061 830.431 471.061 830.766 470.726C831.1 470.392 831.101 469.849 830.766 469.515C830.432 469.18 829.89 469.18 829.555 469.515C829.221 469.85 829.221 470.392 829.555 470.727Z" fill="#9B70EE"/>
<path d="M927.791 290.574C928.126 290.909 928.668 290.909 929.002 290.574C929.337 290.24 929.337 289.697 929.003 289.362C928.668 289.028 928.126 289.028 927.792 289.363C927.457 289.697 927.457 290.24 927.791 290.574Z" fill="#9B70EE"/>
<path d="M768.625 360.368C768.96 360.702 769.502 360.702 769.836 360.368C770.171 360.033 770.171 359.49 769.837 359.156C769.502 358.821 768.96 358.822 768.626 359.156C768.291 359.491 768.291 360.033 768.625 360.368Z" fill="#9B70EE"/>
<path d="M965.684 299.603C966.018 299.937 966.561 299.937 966.895 299.602C967.229 299.268 967.23 298.725 966.895 298.391C966.561 298.056 966.019 298.057 965.685 298.391C965.35 298.726 965.35 299.268 965.684 299.603Z" fill="#9B70EE"/>
<path d="M995.198 366.872C995.532 367.206 996.074 367.206 996.409 366.872C996.743 366.537 996.743 365.994 996.409 365.66C996.075 365.325 995.532 365.326 995.198 365.66C994.863 365.995 994.863 366.537 995.198 366.872Z" fill="#9B70EE"/>
<path d="M925.549 318.895C925.883 319.229 926.426 319.229 926.76 318.894C927.095 318.56 927.095 318.017 926.76 317.683C926.426 317.348 925.884 317.348 925.55 317.683C925.215 318.018 925.215 318.56 925.549 318.895Z" fill="#9B70EE"/>
<path d="M957.617 333.978C958.404 333.674 958.796 332.788 958.492 332.001C958.188 331.213 957.304 330.822 956.516 331.126C955.729 331.43 955.337 332.316 955.641 333.104C955.945 333.891 956.83 334.283 957.617 333.978Z" fill="#9B70EE" fill-opacity="0.2"/>
<path d="M875.097 410.535C875.694 411.132 876.661 411.132 877.258 410.534C877.855 409.937 877.855 408.969 877.259 408.372C876.662 407.775 875.695 407.775 875.098 408.373C874.501 408.97 874.501 409.938 875.097 410.535Z" fill="#9B70EE" fill-opacity="0.2"/>
<path d="M893.082 356.785C893.926 356.784 894.61 356.1 894.61 355.255C894.611 354.411 893.927 353.726 893.083 353.727C892.239 353.727 891.554 354.412 891.554 355.256C891.554 356.1 892.238 356.785 893.082 356.785Z" fill="#9B70EE" fill-opacity="0.2"/>
<path d="M876.432 262.121C876.766 262.455 877.308 262.455 877.643 262.12C877.977 261.786 877.977 261.243 877.643 260.909C877.309 260.574 876.767 260.574 876.432 260.909C876.098 261.244 876.098 261.786 876.432 262.121Z" fill="#9B70EE" fill-opacity="0.2"/>
<path d="M826.948 345.342C827.282 345.677 827.824 345.677 828.159 345.342C828.493 345.007 828.493 344.465 828.159 344.131C827.824 343.796 827.282 343.796 826.948 344.131C826.613 344.466 826.613 345.008 826.948 345.342Z" fill="#9B70EE" fill-opacity="0.2"/>
<path d="M914.975 445.986C914.402 445.249 914.402 445.118 914.975 444.348C914.238 444.921 914.108 444.921 913.338 444.348C913.911 445.085 913.911 445.216 913.338 445.986C914.075 445.413 914.222 445.429 914.975 445.986Z" fill="#9B70EE"/>
<path d="M790.081 415.947C789.508 415.21 789.508 415.079 790.081 414.309C789.344 414.883 789.213 414.883 788.444 414.31C789.017 415.047 789.017 415.178 788.443 415.948C789.18 415.374 789.328 415.391 790.081 415.947Z" fill="#9B70EE"/>
<path d="M788.442 474.659C787.869 473.922 787.869 473.791 788.442 473.021C787.705 473.595 787.574 473.595 786.805 473.021C787.378 473.758 787.378 473.89 786.805 474.66C787.542 474.086 787.689 474.102 788.442 474.659Z" fill="#9B70EE"/>
<path d="M1112.76 401.154C1112.19 400.417 1112.19 400.286 1112.76 399.516C1112.03 400.089 1111.89 400.089 1111.13 399.516C1111.7 400.253 1111.7 400.384 1111.12 401.154C1111.86 400.581 1112.01 400.597 1112.76 401.154Z" fill="#9B70EE"/>
<path d="M1235.14 432.89C1234.57 432.153 1234.57 432.022 1235.15 431.252C1234.41 431.825 1234.28 431.825 1233.51 431.252C1234.08 431.989 1234.08 432.12 1233.51 432.89C1234.24 432.316 1234.39 432.333 1235.14 432.89Z" fill="#9B70EE"/>
<path d="M1178.47 480.564C1177.89 479.826 1177.89 479.695 1178.47 478.925C1177.73 479.499 1177.6 479.499 1176.83 478.926C1177.4 479.663 1177.4 479.794 1176.83 480.564C1177.57 479.99 1177.71 480.007 1178.47 480.564Z" fill="#9B70EE"/>
<path d="M1039.32 520.125C1038.75 519.388 1038.75 519.256 1039.32 518.486C1038.59 519.06 1038.46 519.06 1037.69 518.487C1038.26 519.224 1038.26 519.355 1037.69 520.125C1038.42 519.551 1038.57 519.568 1039.32 520.125Z" fill="#9B70EE"/>
<path d="M1035.41 419.977C1034.83 419.24 1034.83 419.109 1035.41 418.339C1034.67 418.912 1034.54 418.912 1033.77 418.339C1034.34 419.076 1034.34 419.207 1033.77 419.977C1034.51 419.404 1034.65 419.42 1035.41 419.977Z" fill="#9B70EE"/>
<path d="M1070.76 434.51C1071.09 434.845 1071.63 434.845 1071.97 434.51C1072.3 434.175 1072.3 433.633 1071.97 433.299C1071.63 432.964 1071.09 432.964 1070.76 433.299C1070.42 433.634 1070.42 434.176 1070.76 434.51Z" fill="#9B70EE"/>
<path d="M1039.2 583.089C1039.53 583.424 1040.07 583.423 1040.41 583.089C1040.74 582.754 1040.74 582.212 1040.41 581.877C1040.07 581.543 1039.53 581.543 1039.2 581.877C1038.86 582.212 1038.86 582.755 1039.2 583.089Z" fill="#9B70EE"/>
<path d="M1137.43 402.936C1137.77 403.271 1138.31 403.271 1138.64 402.936C1138.98 402.601 1138.98 402.059 1138.64 401.724C1138.31 401.39 1137.77 401.39 1137.43 401.725C1137.1 402.059 1137.1 402.602 1137.43 402.936Z" fill="#9B70EE"/>
<path d="M978.266 472.73C978.6 473.064 979.142 473.064 979.477 472.729C979.811 472.395 979.811 471.852 979.477 471.518C979.143 471.183 978.6 471.183 978.266 471.518C977.932 471.853 977.931 472.395 978.266 472.73Z" fill="#9B70EE"/>
<path d="M1175.33 411.964C1175.66 412.298 1176.2 412.298 1176.54 411.963C1176.87 411.629 1176.87 411.086 1176.54 410.752C1176.2 410.417 1175.66 410.417 1175.33 410.752C1174.99 411.087 1174.99 411.629 1175.33 411.964Z" fill="#9B70EE"/>
<path d="M1204.84 479.235C1205.17 479.57 1205.72 479.57 1206.05 479.235C1206.39 478.901 1206.39 478.358 1206.05 478.024C1205.72 477.689 1205.17 477.689 1204.84 478.024C1204.51 478.359 1204.51 478.901 1204.84 479.235Z" fill="#9B70EE"/>
<path d="M1135.19 431.257C1135.53 431.591 1136.07 431.591 1136.4 431.257C1136.74 430.922 1136.74 430.38 1136.4 430.045C1136.07 429.711 1135.53 429.711 1135.19 430.045C1134.86 430.38 1134.86 430.922 1135.19 431.257Z" fill="#9B70EE"/>
<path d="M1167.26 446.34C1168.04 446.035 1168.44 445.15 1168.13 444.362C1167.83 443.574 1166.94 443.183 1166.16 443.487C1165.37 443.792 1164.98 444.677 1165.28 445.465C1165.59 446.253 1166.47 446.644 1167.26 446.34Z" fill="#9B70EE" fill-opacity="0.2"/>
<path d="M1084.74 522.897C1085.34 523.494 1086.31 523.493 1086.9 522.896C1087.5 522.299 1087.5 521.331 1086.9 520.734C1086.31 520.137 1085.34 520.137 1084.74 520.734C1084.15 521.332 1084.14 522.3 1084.74 522.897Z" fill="#9B70EE" fill-opacity="0.2"/>
<path d="M1102.72 469.146C1103.56 469.146 1104.25 468.461 1104.25 467.617C1104.25 466.772 1103.56 466.088 1102.72 466.088C1101.88 466.088 1101.19 466.773 1101.19 467.617C1101.19 468.462 1101.88 469.146 1102.72 469.146Z" fill="#9B70EE" fill-opacity="0.2"/>
<path d="M1086.08 374.483C1086.41 374.817 1086.95 374.817 1087.29 374.482C1087.62 374.148 1087.62 373.605 1087.29 373.271C1086.95 372.936 1086.41 372.936 1086.08 373.271C1085.74 373.606 1085.74 374.148 1086.08 374.483Z" fill="#9B70EE" fill-opacity="0.2"/>
<path d="M1036.59 457.705C1036.92 458.039 1037.47 458.039 1037.8 457.704C1038.14 457.37 1038.14 456.827 1037.8 456.493C1037.47 456.158 1036.92 456.158 1036.59 456.493C1036.26 456.828 1036.26 457.37 1036.59 457.705Z" fill="#9B70EE" fill-opacity="0.2"/>
<path d="M1124.62 558.348C1124.04 557.611 1124.04 557.48 1124.62 556.71C1123.88 557.283 1123.75 557.283 1122.98 556.71C1123.55 557.447 1123.55 557.578 1122.98 558.348C1123.72 557.774 1123.86 557.791 1124.62 558.348Z" fill="#9B70EE"/>
<path d="M999.723 528.309C999.15 527.572 999.15 527.441 999.723 526.67C998.986 527.244 998.855 527.244 998.086 526.671C998.659 527.408 998.659 527.539 998.086 528.309C998.822 527.735 998.97 527.752 999.723 528.309Z" fill="#9B70EE"/>
<path d="M998.084 587.023C997.511 586.286 997.511 586.155 998.085 585.385C997.348 585.958 997.217 585.958 996.447 585.385C997.02 586.122 997.02 586.253 996.447 587.023C997.184 586.45 997.331 586.466 998.084 587.023Z" fill="#9B70EE"/>
<path d="M1078.55 112.291C1077.97 111.554 1077.97 111.423 1078.55 110.653C1077.81 111.226 1077.68 111.226 1076.91 110.653C1077.48 111.39 1077.48 111.521 1076.91 112.291C1077.64 111.718 1077.79 111.734 1078.55 112.291Z" fill="#9B70EE"/>
<path d="M1200.93 144.026C1200.36 143.289 1200.36 143.158 1200.93 142.388C1200.19 142.962 1200.06 142.962 1199.29 142.389C1199.87 143.126 1199.87 143.257 1199.29 144.027C1200.03 143.453 1200.18 143.47 1200.93 144.026Z" fill="#9B70EE"/>
<path d="M1144.25 191.701C1143.68 190.964 1143.68 190.833 1144.25 190.063C1143.51 190.637 1143.38 190.637 1142.61 190.063C1143.19 190.8 1143.19 190.932 1142.61 191.702C1143.35 191.128 1143.5 191.144 1144.25 191.701Z" fill="#9B70EE"/>
<path d="M1005.11 231.263C1004.54 230.526 1004.54 230.395 1005.11 229.625C1004.37 230.199 1004.24 230.199 1003.47 229.625C1004.05 230.362 1004.05 230.494 1003.47 231.264C1004.21 230.69 1004.36 230.706 1005.11 231.263Z" fill="#9B70EE"/>
<path d="M1001.19 131.115C1000.62 130.378 1000.62 130.247 1001.19 129.477C1000.45 130.051 1000.32 130.051 999.553 129.478C1000.13 130.215 1000.13 130.346 999.552 131.116C1000.29 130.542 1000.44 130.558 1001.19 131.115Z" fill="#9B70EE"/>
<path d="M1036.54 145.649C1036.87 145.983 1037.42 145.983 1037.75 145.648C1038.08 145.314 1038.08 144.771 1037.75 144.437C1037.42 144.102 1036.87 144.102 1036.54 144.437C1036.2 144.772 1036.2 145.314 1036.54 145.649Z" fill="#9B70EE"/>
<path d="M1004.98 294.227C1005.31 294.562 1005.86 294.562 1006.19 294.227C1006.53 293.892 1006.53 293.35 1006.19 293.015C1005.86 292.681 1005.32 292.681 1004.98 293.016C1004.65 293.35 1004.65 293.893 1004.98 294.227Z" fill="#9B70EE"/>
<path d="M1103.22 114.075C1103.55 114.41 1104.1 114.41 1104.43 114.075C1104.76 113.74 1104.76 113.198 1104.43 112.863C1104.1 112.529 1103.55 112.529 1103.22 112.864C1102.88 113.198 1102.88 113.741 1103.22 114.075Z" fill="#9B70EE"/>
<path d="M944.051 183.868C944.385 184.203 944.927 184.203 945.262 183.868C945.596 183.533 945.596 182.991 945.262 182.656C944.928 182.322 944.386 182.322 944.051 182.657C943.717 182.991 943.716 183.534 944.051 183.868Z" fill="#9B70EE"/>
<path d="M1141.11 123.101C1141.44 123.435 1141.99 123.435 1142.32 123.1C1142.65 122.766 1142.65 122.223 1142.32 121.889C1141.99 121.554 1141.44 121.555 1141.11 121.889C1140.78 122.224 1140.78 122.766 1141.11 123.101Z" fill="#9B70EE"/>
<path d="M1170.63 190.373C1170.96 190.708 1171.5 190.708 1171.84 190.373C1172.17 190.038 1172.17 189.496 1171.84 189.161C1171.5 188.827 1170.96 188.827 1170.63 189.162C1170.29 189.496 1170.29 190.039 1170.63 190.373Z" fill="#9B70EE"/>
<path d="M1100.98 142.395C1101.31 142.73 1101.85 142.73 1102.19 142.395C1102.52 142.06 1102.52 141.518 1102.19 141.183C1101.85 140.849 1101.31 140.849 1100.98 141.184C1100.64 141.518 1100.64 142.061 1100.98 142.395Z" fill="#9B70EE"/>
<path d="M1133.04 157.478C1133.83 157.174 1134.22 156.288 1133.92 155.501C1133.61 154.713 1132.73 154.322 1131.94 154.626C1131.15 154.93 1130.76 155.816 1131.07 156.604C1131.37 157.391 1132.26 157.783 1133.04 157.478Z" fill="#9B70EE" fill-opacity="0.2"/>
<path d="M1050.52 234.035C1051.12 234.632 1052.09 234.632 1052.68 234.034C1053.28 233.437 1053.28 232.469 1052.68 231.872C1052.09 231.275 1051.12 231.275 1050.52 231.873C1049.93 232.47 1049.93 233.438 1050.52 234.035Z" fill="#9B70EE" fill-opacity="0.2"/>
<path d="M1068.51 180.285C1069.35 180.285 1070.04 179.6 1070.04 178.756C1070.04 177.911 1069.35 177.227 1068.51 177.227C1067.66 177.227 1066.98 177.912 1066.98 178.757C1066.98 179.601 1067.66 180.285 1068.51 180.285Z" fill="#9B70EE" fill-opacity="0.2"/>
<path d="M1051.86 85.6222C1052.19 85.9566 1052.74 85.9566 1053.07 85.6219C1053.4 85.2872 1053.4 84.7448 1053.07 84.4103C1052.74 84.0758 1052.19 84.0759 1051.86 84.4106C1051.53 84.7453 1051.53 85.2876 1051.86 85.6222Z" fill="#9B70EE" fill-opacity="0.2"/>
<path d="M1002.37 168.843C1002.71 169.177 1003.25 169.177 1003.58 168.843C1003.92 168.508 1003.92 167.965 1003.58 167.631C1003.25 167.296 1002.71 167.297 1002.37 167.631C1002.04 167.966 1002.04 168.508 1002.37 168.843Z" fill="#9B70EE" fill-opacity="0.2"/>
<path d="M1090.4 269.486C1089.83 268.749 1089.83 268.618 1090.4 267.848C1089.67 268.422 1089.53 268.422 1088.77 267.849C1089.34 268.586 1089.34 268.717 1088.77 269.487C1089.5 268.913 1089.65 268.93 1090.4 269.486Z" fill="#9B70EE"/>
<path d="M965.506 239.447C964.933 238.71 964.933 238.579 965.506 237.809C964.769 238.383 964.638 238.383 963.869 237.81C964.442 238.547 964.442 238.678 963.869 239.448C964.606 238.874 964.753 238.891 965.506 239.447Z" fill="#9B70EE"/>
<path d="M963.871 298.162C963.298 297.425 963.298 297.294 963.872 296.523C963.135 297.097 963.004 297.097 962.234 296.524C962.807 297.261 962.807 297.392 962.234 298.162C962.971 297.588 963.118 297.605 963.871 298.162Z" fill="#9B70EE"/>
<path d="M1288.19 224.655C1287.61 223.918 1287.61 223.787 1288.19 223.017C1287.45 223.591 1287.32 223.591 1286.55 223.017C1287.12 223.754 1287.12 223.886 1286.55 224.656C1287.29 224.082 1287.43 224.099 1288.19 224.655Z" fill="#9B70EE"/>
<path d="M1410.57 256.393C1410 255.656 1410 255.525 1410.57 254.754C1409.84 255.328 1409.71 255.328 1408.94 254.755C1409.51 255.492 1409.51 255.623 1408.94 256.393C1409.67 255.819 1409.82 255.836 1410.57 256.393Z" fill="#9B70EE"/>
<path d="M1353.89 304.066C1353.32 303.329 1353.32 303.198 1353.89 302.428C1353.15 303.001 1353.02 303.001 1352.25 302.428C1352.82 303.165 1352.82 303.296 1352.25 304.066C1352.99 303.493 1353.14 303.509 1353.89 304.066Z" fill="#9B70EE"/>
<path d="M1214.75 343.628C1214.18 342.891 1214.18 342.76 1214.75 341.99C1214.01 342.563 1213.88 342.563 1213.11 341.99C1213.68 342.727 1213.68 342.858 1213.11 343.628C1213.85 343.055 1214 343.071 1214.75 343.628Z" fill="#9B70EE"/>
<path d="M1210.83 243.48C1210.26 242.743 1210.26 242.611 1210.83 241.841C1210.1 242.415 1209.96 242.415 1209.2 241.842C1209.77 242.579 1209.77 242.71 1209.2 243.48C1209.93 242.906 1210.08 242.923 1210.83 243.48Z" fill="#9B70EE"/>
<path d="M1246.18 258.015C1246.51 258.35 1247.05 258.35 1247.39 258.015C1247.72 257.68 1247.72 257.138 1247.39 256.803C1247.05 256.469 1246.51 256.469 1246.18 256.804C1245.84 257.138 1245.84 257.681 1246.18 258.015Z" fill="#9B70EE"/>
<path d="M1214.62 406.591C1214.95 406.926 1215.5 406.926 1215.83 406.591C1216.16 406.256 1216.16 405.714 1215.83 405.38C1215.5 405.045 1214.95 405.045 1214.62 405.38C1214.29 405.715 1214.29 406.257 1214.62 406.591Z" fill="#9B70EE"/>
<path d="M1312.86 226.439C1313.19 226.774 1313.73 226.774 1314.07 226.439C1314.4 226.104 1314.4 225.562 1314.07 225.227C1313.73 224.893 1313.19 224.893 1312.86 225.228C1312.52 225.562 1312.52 226.105 1312.86 226.439Z" fill="#9B70EE"/>
<path d="M1153.69 296.235C1154.02 296.569 1154.57 296.569 1154.9 296.234C1155.23 295.9 1155.24 295.357 1154.9 295.023C1154.57 294.688 1154.02 294.688 1153.69 295.023C1153.36 295.358 1153.36 295.9 1153.69 296.235Z" fill="#9B70EE"/>
<path d="M1350.75 235.467C1351.09 235.801 1351.63 235.801 1351.96 235.467C1352.3 235.132 1352.3 234.589 1351.96 234.255C1351.63 233.921 1351.09 233.921 1350.75 234.255C1350.42 234.59 1350.42 235.133 1350.75 235.467Z" fill="#9B70EE"/>
<path d="M1380.27 302.74C1380.6 303.074 1381.14 303.074 1381.48 302.74C1381.81 302.405 1381.81 301.863 1381.48 301.528C1381.14 301.194 1380.6 301.194 1380.27 301.528C1379.93 301.863 1379.93 302.405 1380.27 302.74Z" fill="#9B70EE"/>
<path d="M1310.62 254.761C1310.95 255.095 1311.5 255.095 1311.83 254.761C1312.16 254.426 1312.16 253.883 1311.83 253.549C1311.5 253.214 1310.95 253.215 1310.62 253.549C1310.29 253.884 1310.29 254.426 1310.62 254.761Z" fill="#9B70EE"/>
<path d="M1342.68 269.842C1343.47 269.538 1343.86 268.652 1343.56 267.865C1343.25 267.077 1342.37 266.685 1341.58 266.99C1340.79 267.294 1340.4 268.18 1340.71 268.967C1341.01 269.755 1341.89 270.146 1342.68 269.842Z" fill="#9B70EE" fill-opacity="0.2"/>
<path d="M1260.17 346.4C1260.76 346.997 1261.73 346.996 1262.33 346.399C1262.92 345.802 1262.92 344.834 1262.33 344.237C1261.73 343.64 1260.76 343.64 1260.17 344.237C1259.57 344.835 1259.57 345.803 1260.17 346.4Z" fill="#9B70EE" fill-opacity="0.2"/>
<path d="M1278.14 292.649C1278.99 292.649 1279.67 291.964 1279.67 291.12C1279.67 290.276 1278.99 289.591 1278.15 289.591C1277.3 289.592 1276.62 290.276 1276.62 291.121C1276.62 291.965 1277.3 292.65 1278.14 292.649Z" fill="#9B70EE" fill-opacity="0.2"/>
<path d="M1261.5 197.986C1261.83 198.321 1262.38 198.321 1262.71 197.986C1263.05 197.651 1263.05 197.109 1262.71 196.775C1262.38 196.44 1261.84 196.44 1261.5 196.775C1261.17 197.11 1261.17 197.652 1261.5 197.986Z" fill="#9B70EE" fill-opacity="0.2"/>
<path d="M1212.01 281.208C1212.35 281.542 1212.89 281.542 1213.22 281.207C1213.56 280.873 1213.56 280.33 1213.22 279.996C1212.89 279.661 1212.35 279.661 1212.01 279.996C1211.68 280.331 1211.68 280.873 1212.01 281.208Z" fill="#9B70EE" fill-opacity="0.2"/>
<path d="M1300.04 381.852C1299.47 381.115 1299.47 380.984 1300.04 380.213C1299.3 380.787 1299.17 380.787 1298.4 380.214C1298.98 380.951 1298.98 381.082 1298.4 381.852C1299.14 381.278 1299.29 381.295 1300.04 381.852Z" fill="#9B70EE"/>
<path d="M1175.14 351.813C1174.57 351.076 1174.57 350.944 1175.15 350.174C1174.41 350.748 1174.28 350.748 1173.51 350.175C1174.08 350.912 1174.08 351.043 1173.51 351.813C1174.24 351.239 1174.39 351.256 1175.14 351.813Z" fill="#9B70EE"/>
<path d="M1173.51 410.525C1172.93 409.788 1172.93 409.657 1173.51 408.887C1172.77 409.46 1172.64 409.46 1171.87 408.887C1172.44 409.624 1172.44 409.755 1171.87 410.525C1172.61 409.952 1172.75 409.968 1173.51 410.525Z" fill="#9B70EE"/>
<path d="M203.119 757.209C202.546 757.946 202.547 758.077 203.12 758.847C202.383 758.274 202.252 758.274 201.483 758.847C202.055 758.11 202.055 757.979 201.482 757.209C202.219 757.782 202.366 757.766 203.119 757.209Z" fill="#9B70EE"/>
<path d="M325.502 725.474C324.929 726.211 324.929 726.342 325.502 727.112C324.765 726.538 324.635 726.538 323.865 727.111C324.438 726.374 324.438 726.243 323.865 725.473C324.602 726.047 324.749 726.03 325.502 725.474Z" fill="#9B70EE"/>
<path d="M268.824 677.8C268.251 678.537 268.251 678.668 268.825 679.438C268.088 678.864 267.957 678.864 267.188 679.438C267.76 678.701 267.76 678.569 267.187 677.799C267.924 678.373 268.071 678.357 268.824 677.8Z" fill="#9B70EE"/>
<path d="M129.684 638.238C129.111 638.975 129.111 639.106 129.684 639.876C128.947 639.302 128.816 639.302 128.047 639.876C128.62 639.138 128.62 639.007 128.046 638.237C128.783 638.811 128.931 638.795 129.684 638.238Z" fill="#9B70EE"/>
<path d="M125.764 738.384C125.191 739.121 125.191 739.252 125.764 740.022C125.027 739.449 124.896 739.449 124.127 740.022C124.7 739.285 124.7 739.154 124.127 738.384C124.863 738.957 125.011 738.941 125.764 738.384Z" fill="#9B70EE"/>
<path d="M161.113 723.853C161.448 723.518 161.99 723.518 162.324 723.853C162.659 724.188 162.659 724.73 162.324 725.065C161.99 725.399 161.448 725.399 161.114 725.064C160.779 724.73 160.779 724.187 161.113 723.853Z" fill="#9B70EE"/>
<path d="M129.553 575.273C129.887 574.939 130.429 574.939 130.764 575.274C131.098 575.608 131.098 576.151 130.764 576.485C130.43 576.82 129.888 576.82 129.553 576.485C129.219 576.15 129.219 575.608 129.553 575.273Z" fill="#9B70EE"/>
<path d="M227.791 755.426C228.125 755.091 228.667 755.091 229.002 755.426C229.336 755.76 229.336 756.303 229.002 756.638C228.668 756.972 228.126 756.972 227.791 756.637C227.457 756.303 227.457 755.76 227.791 755.426Z" fill="#9B70EE"/>
<path d="M68.6269 685.632C68.9611 685.297 69.5033 685.297 69.8378 685.632C70.1722 685.967 70.1723 686.509 69.8381 686.844C69.5038 687.178 68.9616 687.178 68.6273 686.843C68.2928 686.509 68.2925 685.966 68.6269 685.632Z" fill="#9B70EE"/>
<path d="M265.684 746.398C266.018 746.064 266.56 746.064 266.894 746.399C267.229 746.733 267.229 747.276 266.895 747.61C266.56 747.945 266.018 747.944 265.684 747.61C265.349 747.275 265.349 746.733 265.684 746.398Z" fill="#9B70EE"/>
<path d="M295.199 679.128C295.534 678.794 296.076 678.794 296.41 679.128C296.745 679.463 296.745 680.006 296.41 680.34C296.076 680.675 295.534 680.674 295.2 680.34C294.865 680.005 294.865 679.463 295.199 679.128Z" fill="#9B70EE"/>
<path d="M225.553 727.106C225.887 726.771 226.429 726.771 226.764 727.106C227.098 727.441 227.098 727.983 226.764 728.318C226.43 728.652 225.888 728.652 225.553 728.317C225.219 727.983 225.218 727.44 225.553 727.106Z" fill="#9B70EE"/>
<path d="M257.619 712.022C258.406 712.327 258.798 713.212 258.494 714C258.19 714.787 257.305 715.179 256.518 714.875C255.731 714.57 255.339 713.685 255.643 712.897C255.947 712.109 256.831 711.718 257.619 712.022Z" fill="#9B70EE" fill-opacity="0.2"/>
<path d="M175.099 635.466C175.695 634.869 176.663 634.869 177.26 635.466C177.857 636.063 177.857 637.032 177.26 637.629C176.664 638.226 175.696 638.225 175.099 637.628C174.502 637.031 174.502 636.063 175.099 635.466Z" fill="#9B70EE" fill-opacity="0.2"/>
<path d="M193.078 689.215C193.922 689.216 194.606 689.9 194.606 690.745C194.606 691.589 193.922 692.274 193.078 692.273C192.234 692.273 191.55 691.588 191.55 690.744C191.55 689.9 192.234 689.215 193.078 689.215Z" fill="#9B70EE" fill-opacity="0.2"/>
<path d="M176.434 783.88C176.768 783.545 177.31 783.545 177.644 783.88C177.979 784.215 177.979 784.757 177.645 785.092C177.31 785.426 176.768 785.426 176.434 785.091C176.099 784.757 176.099 784.214 176.434 783.88Z" fill="#9B70EE" fill-opacity="0.2"/>
<path d="M126.949 700.657C127.283 700.323 127.826 700.323 128.16 700.657C128.495 700.992 128.495 701.535 128.16 701.869C127.826 702.204 127.284 702.203 126.95 701.869C126.615 701.534 126.615 700.992 126.949 700.657Z" fill="#9B70EE" fill-opacity="0.2"/>
<path d="M214.977 600.015C214.404 600.752 214.404 600.883 214.977 601.653C214.24 601.079 214.109 601.079 213.34 601.652C213.913 600.915 213.913 600.784 213.339 600.014C214.076 600.588 214.224 600.571 214.977 600.015Z" fill="#9B70EE"/>
<path d="M90.0781 630.054C89.5053 630.791 89.5054 630.922 90.0786 631.692C89.3416 631.118 89.2107 631.118 88.4414 631.691C89.0142 630.954 89.0142 630.823 88.441 630.053C89.1778 630.627 89.3252 630.61 90.0781 630.054Z" fill="#9B70EE"/>
<path d="M88.4434 571.34C87.8706 572.077 87.8706 572.208 88.4438 572.978C87.7069 572.405 87.5759 572.404 86.8066 572.978C87.3795 572.241 87.3794 572.11 86.8063 571.339C87.543 571.913 87.6904 571.897 88.4434 571.34Z" fill="#9B70EE"/>
<path d="M412.764 644.846C412.191 645.583 412.191 645.714 412.764 646.484C412.027 645.911 411.896 645.911 411.127 646.484C411.7 645.747 411.7 645.616 411.127 644.846C411.864 645.419 412.011 645.403 412.764 644.846Z" fill="#9B70EE"/>
<path d="M535.15 613.11C534.578 613.847 534.578 613.978 535.151 614.748C534.414 614.175 534.283 614.175 533.514 614.748C534.087 614.011 534.087 613.88 533.513 613.11C534.25 613.684 534.398 613.667 535.15 613.11Z" fill="#9B70EE"/>
<path d="M478.469 565.438C477.896 566.175 477.896 566.306 478.469 567.076C477.732 566.503 477.601 566.503 476.832 567.076C477.405 566.339 477.405 566.208 476.832 565.438C477.569 566.011 477.716 565.995 478.469 565.438Z" fill="#9B70EE"/>
<path d="M339.33 525.875C338.757 526.612 338.757 526.743 339.331 527.513C338.594 526.94 338.463 526.94 337.693 527.513C338.266 526.776 338.266 526.645 337.693 525.875C338.43 526.448 338.577 526.432 339.33 525.875Z" fill="#9B70EE"/>
<path d="M335.41 626.023C334.837 626.76 334.838 626.891 335.411 627.661C334.674 627.088 334.543 627.088 333.774 627.661C334.346 626.924 334.346 626.793 333.773 626.023C334.51 626.596 334.657 626.58 335.41 626.023Z" fill="#9B70EE"/>
<path d="M370.758 611.49C371.092 611.156 371.634 611.156 371.969 611.49C372.303 611.825 372.303 612.367 371.969 612.702C371.635 613.036 371.093 613.036 370.758 612.702C370.424 612.367 370.424 611.825 370.758 611.49Z" fill="#9B70EE"/>
<path d="M339.199 462.911C339.534 462.576 340.076 462.577 340.41 462.911C340.745 463.246 340.745 463.788 340.41 464.123C340.076 464.457 339.534 464.457 339.2 464.123C338.865 463.788 338.865 463.245 339.199 462.911Z" fill="#9B70EE"/>
<path d="M437.438 643.063C437.772 642.729 438.314 642.729 438.648 643.064C438.983 643.398 438.983 643.941 438.649 644.275C438.314 644.61 437.772 644.609 437.438 644.275C437.103 643.94 437.103 643.398 437.438 643.063Z" fill="#9B70EE"/>
<path d="M278.27 573.269C278.604 572.935 279.146 572.935 279.481 573.27C279.815 573.604 279.815 574.147 279.481 574.481C279.146 574.816 278.604 574.816 278.27 574.481C277.935 574.146 277.935 573.604 278.27 573.269Z" fill="#9B70EE"/>
<path d="M475.33 634.035C475.664 633.701 476.207 633.701 476.541 634.036C476.875 634.37 476.876 634.913 476.541 635.247C476.207 635.582 475.665 635.582 475.331 635.247C474.996 634.912 474.996 634.37 475.33 634.035Z" fill="#9B70EE"/>
<path d="M504.846 566.764C505.18 566.429 505.722 566.429 506.057 566.764C506.391 567.098 506.391 567.641 506.057 567.975C505.723 568.31 505.18 568.31 504.846 567.975C504.512 567.64 504.512 567.098 504.846 566.764Z" fill="#9B70EE"/>
<path d="M435.197 614.744C435.532 614.409 436.074 614.409 436.408 614.744C436.743 615.079 436.743 615.621 436.409 615.955C436.074 616.29 435.532 616.29 435.198 615.955C434.863 615.62 434.863 615.078 435.197 614.744Z" fill="#9B70EE"/>
<path d="M467.263 599.66C468.05 599.964 468.442 600.85 468.138 601.637C467.835 602.425 466.95 602.817 466.163 602.512C465.375 602.208 464.983 601.322 465.287 600.535C465.591 599.747 466.476 599.355 467.263 599.66Z" fill="#9B70EE" fill-opacity="0.2"/>
<path d="M384.745 523.102C385.342 522.505 386.309 522.506 386.906 523.103C387.503 523.7 387.504 524.668 386.907 525.265C386.31 525.862 385.343 525.862 384.746 525.265C384.149 524.667 384.149 523.699 384.745 523.102Z" fill="#9B70EE" fill-opacity="0.2"/>
<path d="M402.722 576.853C403.566 576.854 404.25 577.538 404.251 578.383C404.251 579.227 403.567 579.912 402.723 579.912C401.879 579.911 401.195 579.227 401.195 578.382C401.194 577.538 401.878 576.853 402.722 576.853Z" fill="#9B70EE" fill-opacity="0.2"/>
<path d="M386.08 671.516C386.414 671.182 386.957 671.182 387.291 671.517C387.626 671.851 387.626 672.394 387.291 672.728C386.957 673.063 386.415 673.063 386.081 672.728C385.746 672.393 385.746 671.851 386.08 671.516Z" fill="#9B70EE" fill-opacity="0.2"/>
<path d="M336.594 588.295C336.928 587.96 337.47 587.96 337.805 588.295C338.139 588.63 338.139 589.172 337.805 589.507C337.471 589.841 336.929 589.841 336.594 589.506C336.26 589.172 336.26 588.629 336.594 588.295Z" fill="#9B70EE" fill-opacity="0.2"/>
<path d="M424.623 487.653C424.05 488.39 424.05 488.521 424.624 489.291C423.887 488.717 423.756 488.717 422.986 489.291C423.559 488.554 423.559 488.422 422.986 487.652C423.723 488.226 423.87 488.21 424.623 487.653Z" fill="#9B70EE"/>
<path d="M299.727 517.691C299.154 518.428 299.154 518.559 299.727 519.33C298.99 518.756 298.859 518.756 298.09 519.329C298.663 518.592 298.663 518.461 298.09 517.691C298.826 518.265 298.974 518.248 299.727 517.691Z" fill="#9B70EE"/>
<path d="M298.088 458.977C297.515 459.714 297.515 459.845 298.088 460.615C297.351 460.042 297.221 460.042 296.451 460.615C297.024 459.878 297.024 459.747 296.451 458.977C297.188 459.55 297.335 459.534 298.088 458.977Z" fill="#9B70EE"/>
<path d="M378.547 933.708C377.974 934.445 377.974 934.576 378.547 935.346C377.811 934.773 377.68 934.773 376.91 935.346C377.483 934.609 377.483 934.478 376.91 933.708C377.647 934.281 377.794 934.265 378.547 933.708Z" fill="#9B70EE"/>
<path d="M500.934 901.973C500.361 902.71 500.361 902.841 500.934 903.611C500.197 903.037 500.066 903.037 499.297 903.61C499.87 902.873 499.87 902.742 499.297 901.972C500.033 902.546 500.181 902.529 500.934 901.973Z" fill="#9B70EE"/>
<path d="M444.252 854.299C443.679 855.036 443.679 855.167 444.252 855.937C443.516 855.364 443.385 855.364 442.615 855.937C443.188 855.2 443.188 855.069 442.615 854.299C443.352 854.872 443.499 854.856 444.252 854.299Z" fill="#9B70EE"/>
<path d="M305.113 814.737C304.541 815.474 304.541 815.605 305.114 816.375C304.377 815.802 304.246 815.802 303.477 816.375C304.049 815.638 304.049 815.507 303.476 814.737C304.213 815.31 304.36 815.294 305.113 814.737Z" fill="#9B70EE"/>
<path d="M301.195 914.885C300.623 915.622 300.623 915.753 301.196 916.523C300.459 915.95 300.328 915.95 299.559 916.523C300.132 915.786 300.131 915.655 299.558 914.885C300.295 915.458 300.442 915.442 301.195 914.885Z" fill="#9B70EE"/>
<path d="M336.543 900.352C336.877 900.018 337.419 900.018 337.754 900.353C338.088 900.687 338.089 901.23 337.754 901.564C337.42 901.899 336.878 901.899 336.543 901.564C336.209 901.229 336.209 900.687 336.543 900.352Z" fill="#9B70EE"/>
<path d="M304.983 751.772C305.317 751.438 305.859 751.438 306.193 751.773C306.528 752.107 306.528 752.65 306.194 752.984C305.859 753.319 305.317 753.319 304.983 752.984C304.648 752.649 304.648 752.107 304.983 751.772Z" fill="#9B70EE"/>
<path d="M403.223 931.925C403.557 931.591 404.099 931.591 404.434 931.925C404.768 932.26 404.768 932.803 404.434 933.137C404.1 933.472 403.557 933.471 403.223 933.137C402.889 932.802 402.888 932.26 403.223 931.925Z" fill="#9B70EE"/>
<path d="M244.053 862.132C244.387 861.797 244.929 861.797 245.264 862.132C245.598 862.467 245.598 863.009 245.264 863.344C244.93 863.678 244.388 863.678 244.053 863.343C243.719 863.009 243.718 862.466 244.053 862.132Z" fill="#9B70EE"/>
<path d="M441.113 922.898C441.448 922.563 441.99 922.563 442.324 922.898C442.659 923.233 442.659 923.775 442.325 924.11C441.99 924.444 441.448 924.444 441.114 924.109C440.779 923.775 440.779 923.232 441.113 922.898Z" fill="#9B70EE"/>
<path d="M470.631 855.627C470.965 855.293 471.507 855.293 471.842 855.627C472.176 855.962 472.176 856.505 471.842 856.839C471.508 857.174 470.966 857.173 470.631 856.839C470.297 856.504 470.297 855.962 470.631 855.627Z" fill="#9B70EE"/>
<path d="M400.983 903.605C401.317 903.271 401.859 903.271 402.193 903.606C402.528 903.94 402.528 904.483 402.194 904.817C401.859 905.152 401.317 905.152 400.983 904.817C400.648 904.482 400.648 903.94 400.983 903.605Z" fill="#9B70EE"/>
<path d="M433.046 888.522C433.834 888.826 434.225 889.712 433.922 890.499C433.618 891.287 432.733 891.678 431.946 891.374C431.158 891.07 430.767 890.184 431.071 889.396C431.374 888.609 432.259 888.217 433.046 888.522Z" fill="#9B70EE" fill-opacity="0.2"/>
<path d="M350.527 811.965C351.123 811.368 352.091 811.368 352.688 811.966C353.285 812.563 353.285 813.531 352.688 814.128C352.092 814.725 351.124 814.725 350.527 814.127C349.93 813.53 349.93 812.562 350.527 811.965Z" fill="#9B70EE" fill-opacity="0.2"/>
<path d="M368.507 865.715C369.351 865.715 370.036 866.4 370.036 867.244C370.036 868.089 369.352 868.773 368.508 868.773C367.664 868.773 366.98 868.088 366.98 867.243C366.98 866.399 367.663 865.715 368.507 865.715Z" fill="#9B70EE" fill-opacity="0.2"/>
<path d="M302.377 877.157C302.711 876.823 303.253 876.823 303.588 877.157C303.922 877.492 303.922 878.035 303.588 878.369C303.254 878.704 302.712 878.703 302.377 878.369C302.043 878.034 302.043 877.492 302.377 877.157Z" fill="#9B70EE" fill-opacity="0.2"/>
<path d="M390.404 776.514C389.832 777.251 389.832 777.382 390.405 778.152C389.668 777.578 389.537 777.578 388.768 778.151C389.341 777.414 389.34 777.283 388.767 776.513C389.504 777.087 389.652 777.07 390.404 776.514Z" fill="#9B70EE"/>
<path d="M265.508 806.553C264.935 807.29 264.935 807.421 265.508 808.191C264.771 807.617 264.64 807.617 263.871 808.19C264.444 807.453 264.444 807.322 263.871 806.552C264.608 807.126 264.755 807.109 265.508 806.553Z" fill="#9B70EE"/>
<path d="M263.873 747.839C263.3 748.576 263.3 748.707 263.874 749.477C263.137 748.904 263.006 748.903 262.236 749.477C262.809 748.74 262.809 748.609 262.236 747.838C262.973 748.412 263.12 748.396 263.873 747.839Z" fill="#9B70EE"/>
<path d="M588.188 821.346C587.615 822.083 587.615 822.214 588.188 822.984C587.451 822.41 587.32 822.41 586.551 822.984C587.124 822.246 587.124 822.115 586.55 821.345C587.287 821.919 587.435 821.902 588.188 821.346Z" fill="#9B70EE"/>
<path d="M710.572 789.609C709.999 790.346 709.999 790.477 710.573 791.248C709.836 790.674 709.705 790.674 708.935 791.247C709.508 790.51 709.508 790.379 708.935 789.609C709.672 790.183 709.819 790.166 710.572 789.609Z" fill="#9B70EE"/>
<path d="M653.893 741.935C653.32 742.672 653.32 742.803 653.893 743.573C653.156 743 653.025 743 652.256 743.573C652.829 742.836 652.829 742.705 652.255 741.935C652.992 742.508 653.14 742.492 653.893 741.935Z" fill="#9B70EE"/>
<path d="M514.752 702.373C514.179 703.11 514.179 703.241 514.752 704.011C514.015 703.438 513.884 703.438 513.115 704.011C513.688 703.274 513.688 703.143 513.115 702.373C513.852 702.946 513.999 702.93 514.752 702.373Z" fill="#9B70EE"/>
<path d="M510.834 802.52C510.261 803.257 510.261 803.389 510.834 804.159C510.097 803.585 509.966 803.585 509.197 804.158C509.77 803.421 509.77 803.29 509.197 802.52C509.934 803.094 510.081 803.077 510.834 802.52Z" fill="#9B70EE"/>
<path d="M546.18 787.986C546.514 787.652 547.056 787.652 547.391 787.986C547.725 788.321 547.725 788.864 547.391 789.198C547.057 789.533 546.514 789.532 546.18 789.198C545.845 788.863 545.845 788.321 546.18 787.986Z" fill="#9B70EE"/>
<path d="M514.621 639.41C514.955 639.076 515.497 639.076 515.832 639.41C516.166 639.745 516.166 640.287 515.832 640.622C515.498 640.956 514.956 640.956 514.621 640.622C514.287 640.287 514.287 639.745 514.621 639.41Z" fill="#9B70EE"/>
<path d="M612.859 819.562C613.193 819.228 613.736 819.228 614.07 819.563C614.405 819.897 614.405 820.44 614.07 820.774C613.736 821.109 613.194 821.109 612.86 820.774C612.525 820.439 612.525 819.897 612.859 819.562Z" fill="#9B70EE"/>
<path d="M453.691 749.767C454.025 749.433 454.568 749.433 454.902 749.768C455.237 750.102 455.237 750.645 454.903 750.979C454.568 751.314 454.026 751.314 453.692 750.979C453.357 750.644 453.357 750.102 453.691 749.767Z" fill="#9B70EE"/>
<path d="M650.752 810.535C651.086 810.2 651.628 810.201 651.963 810.535C652.297 810.87 652.297 811.412 651.963 811.747C651.629 812.081 651.087 812.081 650.752 811.747C650.418 811.412 650.417 810.869 650.752 810.535Z" fill="#9B70EE"/>
<path d="M680.268 743.263C680.602 742.928 681.144 742.928 681.479 743.263C681.813 743.598 681.813 744.14 681.479 744.475C681.144 744.809 680.602 744.809 680.268 744.475C679.933 744.14 679.933 743.597 680.268 743.263Z" fill="#9B70EE"/>
<path d="M610.621 791.241C610.955 790.906 611.497 790.906 611.832 791.241C612.166 791.576 612.166 792.118 611.832 792.452C611.498 792.787 610.956 792.787 610.621 792.452C610.287 792.117 610.287 791.575 610.621 791.241Z" fill="#9B70EE"/>
<path d="M642.683 776.157C643.47 776.462 643.862 777.347 643.558 778.135C643.254 778.923 642.37 779.314 641.582 779.01C640.795 778.705 640.403 777.82 640.707 777.032C641.011 776.245 641.896 775.853 642.683 776.157Z" fill="#9B70EE" fill-opacity="0.2"/>
<path d="M560.169 699.602C560.766 699.005 561.733 699.005 562.33 699.602C562.927 700.2 562.927 701.168 562.331 701.765C561.734 702.362 560.767 702.362 560.17 701.764C559.573 701.167 559.572 700.199 560.169 699.602Z" fill="#9B70EE" fill-opacity="0.2"/>
<path d="M578.146 753.351C578.99 753.351 579.674 754.036 579.674 754.88C579.675 755.725 578.991 756.409 578.147 756.409C577.303 756.409 576.618 755.724 576.618 754.88C576.618 754.035 577.302 753.351 578.146 753.351Z" fill="#9B70EE" fill-opacity="0.2"/>
<path d="M561.502 848.014C561.836 847.68 562.378 847.68 562.713 848.014C563.047 848.349 563.047 848.891 562.713 849.226C562.379 849.56 561.837 849.56 561.502 849.226C561.168 848.891 561.168 848.349 561.502 848.014Z" fill="#9B70EE" fill-opacity="0.2"/>
<path d="M512.014 764.795C512.348 764.461 512.89 764.461 513.224 764.796C513.559 765.13 513.559 765.673 513.225 766.007C512.89 766.342 512.348 766.342 512.014 766.007C511.679 765.672 511.679 765.13 512.014 764.795Z" fill="#9B70EE" fill-opacity="0.2"/>
<path d="M600.043 664.149C599.47 664.886 599.47 665.017 600.043 665.787C599.306 665.214 599.175 665.214 598.406 665.787C598.979 665.05 598.979 664.919 598.406 664.148C599.143 664.722 599.29 664.706 600.043 664.149Z" fill="#9B70EE"/>
<path d="M475.146 694.188C474.574 694.925 474.574 695.056 475.147 695.827C474.41 695.253 474.279 695.253 473.51 695.826C474.083 695.089 474.082 694.958 473.509 694.188C474.246 694.762 474.394 694.745 475.146 694.188Z" fill="#9B70EE"/>
<path d="M473.51 635.476C472.937 636.213 472.937 636.344 473.51 637.114C472.773 636.541 472.642 636.541 471.873 637.114C472.446 636.377 472.446 636.246 471.873 635.476C472.609 636.049 472.757 636.033 473.51 635.476Z" fill="#9B70EE"/>
<path d="M903.118 662.79C902.545 662.053 902.545 661.922 903.118 661.152C902.381 661.725 902.25 661.725 901.481 661.152C902.054 661.889 902.054 662.02 901.481 662.79C902.217 662.217 902.365 662.233 903.118 662.79Z" fill="#9B70EE"/>
<path d="M1025.5 694.524C1024.93 693.787 1024.93 693.656 1025.51 692.886C1024.77 693.459 1024.64 693.459 1023.87 692.886C1024.44 693.623 1024.44 693.754 1023.87 694.524C1024.6 693.951 1024.75 693.967 1025.5 694.524Z" fill="#9B70EE"/>
<path d="M968.823 742.198C968.25 741.461 968.25 741.33 968.823 740.56C968.086 741.133 967.955 741.133 967.186 740.56C967.759 741.297 967.759 741.428 967.186 742.198C967.922 741.625 968.07 741.641 968.823 742.198Z" fill="#9B70EE"/>
<path d="M829.682 781.76C829.109 781.023 829.109 780.892 829.682 780.122C828.946 780.696 828.815 780.696 828.045 780.123C828.618 780.86 828.618 780.991 828.045 781.761C828.782 781.187 828.929 781.204 829.682 781.76Z" fill="#9B70EE"/>
<path d="M825.762 681.612C825.189 680.875 825.189 680.744 825.763 679.974C825.026 680.548 824.895 680.548 824.125 679.975C824.698 680.712 824.698 680.843 824.125 681.613C824.862 681.039 825.009 681.056 825.762 681.612Z" fill="#9B70EE"/>
<path d="M861.112 696.146C861.446 696.48 861.988 696.48 862.323 696.145C862.657 695.811 862.657 695.268 862.323 694.934C861.989 694.599 861.447 694.599 861.112 694.934C860.778 695.269 860.778 695.811 861.112 696.146Z" fill="#9B70EE"/>
<path d="M829.555 844.725C829.889 845.059 830.431 845.059 830.766 844.724C831.1 844.39 831.101 843.847 830.766 843.513C830.432 843.178 829.89 843.178 829.555 843.513C829.221 843.848 829.221 844.39 829.555 844.725Z" fill="#9B70EE"/>
<path d="M927.791 664.573C928.126 664.907 928.668 664.907 929.002 664.572C929.337 664.238 929.337 663.695 929.003 663.361C928.668 663.026 928.126 663.026 927.792 663.361C927.457 663.696 927.457 664.238 927.791 664.573Z" fill="#9B70EE"/>
<path d="M768.625 734.366C768.96 734.7 769.502 734.7 769.836 734.366C770.171 734.031 770.171 733.488 769.837 733.154C769.502 732.819 768.96 732.82 768.626 733.154C768.291 733.489 768.291 734.031 768.625 734.366Z" fill="#9B70EE"/>
<path d="M965.684 673.601C966.018 673.935 966.561 673.935 966.895 673.6C967.229 673.266 967.23 672.723 966.895 672.389C966.561 672.054 966.019 672.055 965.685 672.389C965.35 672.724 965.35 673.266 965.684 673.601Z" fill="#9B70EE"/>
<path d="M995.198 740.87C995.532 741.204 996.074 741.204 996.409 740.87C996.743 740.535 996.743 739.992 996.409 739.658C996.075 739.323 995.532 739.324 995.198 739.658C994.863 739.993 994.863 740.535 995.198 740.87Z" fill="#9B70EE"/>
<path d="M925.549 692.893C925.883 693.227 926.426 693.227 926.76 692.892C927.095 692.558 927.095 692.015 926.76 691.681C926.426 691.346 925.884 691.346 925.55 691.681C925.215 692.016 925.215 692.558 925.549 692.893Z" fill="#9B70EE"/>
<path d="M957.617 707.976C958.404 707.672 958.796 706.786 958.492 705.999C958.188 705.211 957.304 704.82 956.516 705.124C955.729 705.428 955.337 706.314 955.641 707.102C955.945 707.889 956.83 708.281 957.617 707.976Z" fill="#9B70EE" fill-opacity="0.2"/>
<path d="M875.097 784.533C875.694 785.13 876.661 785.13 877.258 784.532C877.855 783.935 877.855 782.967 877.259 782.37C876.662 781.773 875.695 781.773 875.098 782.371C874.501 782.968 874.501 783.936 875.097 784.533Z" fill="#9B70EE" fill-opacity="0.2"/>
<path d="M893.082 730.783C893.926 730.782 894.61 730.098 894.61 729.253C894.611 728.409 893.927 727.724 893.083 727.725C892.239 727.725 891.554 728.41 891.554 729.254C891.554 730.099 892.238 730.783 893.082 730.783Z" fill="#9B70EE" fill-opacity="0.2"/>
<path d="M876.432 636.119C876.766 636.453 877.308 636.453 877.643 636.118C877.977 635.784 877.977 635.241 877.643 634.907C877.309 634.572 876.767 634.572 876.432 634.907C876.098 635.242 876.098 635.784 876.432 636.119Z" fill="#9B70EE" fill-opacity="0.2"/>
<path d="M826.948 719.34C827.282 719.675 827.824 719.675 828.159 719.34C828.493 719.005 828.493 718.463 828.159 718.129C827.824 717.794 827.282 717.794 826.948 718.129C826.613 718.464 826.613 719.006 826.948 719.34Z" fill="#9B70EE" fill-opacity="0.2"/>
<path d="M914.975 819.984C914.402 819.247 914.402 819.116 914.975 818.346C914.238 818.919 914.108 818.919 913.338 818.346C913.911 819.083 913.911 819.214 913.338 819.984C914.075 819.411 914.222 819.427 914.975 819.984Z" fill="#9B70EE"/>
<path d="M790.081 789.945C789.508 789.208 789.508 789.077 790.081 788.307C789.344 788.881 789.213 788.881 788.444 788.308C789.017 789.045 789.017 789.176 788.443 789.946C789.18 789.372 789.328 789.389 790.081 789.945Z" fill="#9B70EE"/>
<path d="M788.442 848.657C787.869 847.92 787.869 847.789 788.442 847.019C787.705 847.593 787.574 847.593 786.805 847.019C787.378 847.757 787.378 847.888 786.805 848.658C787.542 848.084 787.689 848.1 788.442 848.657Z" fill="#9B70EE"/>
<path d="M1112.76 775.152C1112.19 774.415 1112.19 774.284 1112.76 773.514C1112.03 774.087 1111.89 774.087 1111.13 773.514C1111.7 774.251 1111.7 774.382 1111.12 775.152C1111.86 774.579 1112.01 774.595 1112.76 775.152Z" fill="#9B70EE"/>
<path d="M1235.14 806.888C1234.57 806.151 1234.57 806.02 1235.15 805.25C1234.41 805.823 1234.28 805.823 1233.51 805.25C1234.08 805.987 1234.08 806.118 1233.51 806.888C1234.24 806.315 1234.39 806.331 1235.14 806.888Z" fill="#9B70EE"/>
<path d="M1178.47 854.562C1177.89 853.825 1177.89 853.694 1178.47 852.923C1177.73 853.497 1177.6 853.497 1176.83 852.924C1177.4 853.661 1177.4 853.792 1176.83 854.562C1177.57 853.988 1177.71 854.005 1178.47 854.562Z" fill="#9B70EE"/>
<path d="M1039.32 894.123C1038.75 893.386 1038.75 893.255 1039.32 892.484C1038.59 893.058 1038.46 893.058 1037.69 892.485C1038.26 893.222 1038.26 893.353 1037.69 894.123C1038.42 893.549 1038.57 893.566 1039.32 894.123Z" fill="#9B70EE"/>
<path d="M1035.41 793.975C1034.83 793.238 1034.83 793.107 1035.41 792.337C1034.67 792.91 1034.54 792.91 1033.77 792.337C1034.34 793.074 1034.34 793.205 1033.77 793.976C1034.51 793.402 1034.65 793.418 1035.41 793.975Z" fill="#9B70EE"/>
<path d="M1070.76 808.508C1071.09 808.843 1071.63 808.843 1071.97 808.508C1072.3 808.173 1072.3 807.631 1071.97 807.297C1071.63 806.962 1071.09 806.962 1070.76 807.297C1070.42 807.632 1070.42 808.174 1070.76 808.508Z" fill="#9B70EE"/>
<path d="M1137.43 776.934C1137.77 777.269 1138.31 777.269 1138.64 776.934C1138.98 776.599 1138.98 776.057 1138.64 775.722C1138.31 775.388 1137.77 775.388 1137.43 775.723C1137.1 776.057 1137.1 776.6 1137.43 776.934Z" fill="#9B70EE"/>
<path d="M978.266 846.728C978.6 847.062 979.142 847.062 979.477 846.727C979.811 846.393 979.811 845.85 979.477 845.516C979.143 845.181 978.6 845.182 978.266 845.516C977.932 845.851 977.931 846.393 978.266 846.728Z" fill="#9B70EE"/>
<path d="M1175.33 785.962C1175.66 786.296 1176.2 786.296 1176.54 785.961C1176.87 785.627 1176.87 785.084 1176.54 784.75C1176.2 784.415 1175.66 784.415 1175.33 784.75C1174.99 785.085 1174.99 785.627 1175.33 785.962Z" fill="#9B70EE"/>
<path d="M1204.84 853.234C1205.17 853.568 1205.72 853.568 1206.05 853.233C1206.39 852.899 1206.39 852.356 1206.05 852.022C1205.72 851.687 1205.17 851.687 1204.84 852.022C1204.51 852.357 1204.51 852.899 1204.84 853.234Z" fill="#9B70EE"/>
<path d="M1135.19 805.255C1135.53 805.589 1136.07 805.589 1136.4 805.255C1136.74 804.92 1136.74 804.378 1136.4 804.043C1136.07 803.709 1135.53 803.709 1135.19 804.043C1134.86 804.378 1134.86 804.92 1135.19 805.255Z" fill="#9B70EE"/>
<path d="M1167.26 820.338C1168.04 820.033 1168.44 819.148 1168.13 818.36C1167.83 817.573 1166.94 817.181 1166.16 817.485C1165.37 817.79 1164.98 818.675 1165.28 819.463C1165.59 820.251 1166.47 820.642 1167.26 820.338Z" fill="#9B70EE" fill-opacity="0.2"/>
<path d="M1084.74 896.895C1085.34 897.492 1086.31 897.492 1086.9 896.894C1087.5 896.297 1087.5 895.329 1086.9 894.732C1086.31 894.135 1085.34 894.135 1084.74 894.732C1084.15 895.33 1084.14 896.298 1084.74 896.895Z" fill="#9B70EE" fill-opacity="0.2"/>
<path d="M1102.72 843.144C1103.56 843.144 1104.25 842.459 1104.25 841.615C1104.25 840.77 1103.56 840.086 1102.72 840.086C1101.88 840.086 1101.19 840.771 1101.19 841.615C1101.19 842.46 1101.88 843.144 1102.72 843.144Z" fill="#9B70EE" fill-opacity="0.2"/>
<path d="M1086.08 748.481C1086.41 748.815 1086.95 748.815 1087.29 748.48C1087.62 748.146 1087.62 747.603 1087.29 747.269C1086.95 746.934 1086.41 746.934 1086.08 747.269C1085.74 747.604 1085.74 748.146 1086.08 748.481Z" fill="#9B70EE" fill-opacity="0.2"/>
<path d="M1036.59 831.703C1036.92 832.037 1037.47 832.037 1037.8 831.702C1038.14 831.368 1038.14 830.825 1037.8 830.491C1037.47 830.156 1036.92 830.156 1036.59 830.491C1036.26 830.826 1036.26 831.368 1036.59 831.703Z" fill="#9B70EE" fill-opacity="0.2"/>
<path d="M1124.62 932.346C1124.04 931.609 1124.04 931.478 1124.62 930.708C1123.88 931.281 1123.75 931.281 1122.98 930.708C1123.55 931.445 1123.55 931.576 1122.98 932.346C1123.72 931.773 1123.86 931.789 1124.62 932.346Z" fill="#9B70EE"/>
<path d="M999.723 902.307C999.15 901.57 999.15 901.439 999.723 900.669C998.986 901.242 998.855 901.242 998.086 900.669C998.659 901.406 998.659 901.537 998.086 902.307C998.822 901.733 998.97 901.75 999.723 902.307Z" fill="#9B70EE"/>
<path d="M1078.55 486.289C1077.97 485.552 1077.97 485.421 1078.55 484.651C1077.81 485.224 1077.68 485.224 1076.91 484.651C1077.48 485.388 1077.48 485.519 1076.91 486.289C1077.64 485.716 1077.79 485.732 1078.55 486.289Z" fill="#9B70EE"/>
<path d="M1200.93 518.024C1200.36 517.287 1200.36 517.156 1200.93 516.386C1200.19 516.96 1200.06 516.96 1199.29 516.387C1199.87 517.124 1199.87 517.255 1199.29 518.025C1200.03 517.451 1200.18 517.468 1200.93 518.024Z" fill="#9B70EE"/>
<path d="M1144.25 565.699C1143.68 564.962 1143.68 564.831 1144.25 564.061C1143.51 564.635 1143.38 564.635 1142.61 564.061C1143.19 564.799 1143.19 564.93 1142.61 565.7C1143.35 565.126 1143.5 565.142 1144.25 565.699Z" fill="#9B70EE"/>
<path d="M1005.11 605.261C1004.54 604.524 1004.54 604.393 1005.11 603.623C1004.37 604.197 1004.24 604.197 1003.47 603.624C1004.05 604.361 1004.05 604.492 1003.47 605.262C1004.21 604.688 1004.36 604.704 1005.11 605.261Z" fill="#9B70EE"/>
<path d="M1001.19 505.113C1000.62 504.376 1000.62 504.245 1001.19 503.475C1000.45 504.049 1000.32 504.049 999.553 503.476C1000.13 504.213 1000.13 504.344 999.552 505.114C1000.29 504.54 1000.44 504.557 1001.19 505.113Z" fill="#9B70EE"/>
<path d="M1036.54 519.647C1036.87 519.981 1037.42 519.981 1037.75 519.646C1038.08 519.312 1038.08 518.769 1037.75 518.435C1037.42 518.1 1036.87 518.1 1036.54 518.435C1036.2 518.77 1036.2 519.312 1036.54 519.647Z" fill="#9B70EE"/>
<path d="M1004.98 668.225C1005.31 668.56 1005.86 668.56 1006.19 668.225C1006.53 667.89 1006.53 667.348 1006.19 667.013C1005.86 666.679 1005.32 666.679 1004.98 667.014C1004.65 667.348 1004.65 667.891 1004.98 668.225Z" fill="#9B70EE"/>
<path d="M1103.22 488.074C1103.55 488.408 1104.1 488.408 1104.43 488.073C1104.76 487.739 1104.76 487.196 1104.43 486.862C1104.1 486.527 1103.55 486.527 1103.22 486.862C1102.88 487.196 1102.88 487.739 1103.22 488.074Z" fill="#9B70EE"/>
<path d="M944.051 557.866C944.385 558.201 944.927 558.201 945.262 557.866C945.596 557.531 945.596 556.989 945.262 556.654C944.928 556.32 944.386 556.32 944.051 556.655C943.717 556.989 943.716 557.532 944.051 557.866Z" fill="#9B70EE"/>
<path d="M1141.11 497.099C1141.44 497.433 1141.99 497.433 1142.32 497.098C1142.65 496.764 1142.65 496.221 1142.32 495.887C1141.99 495.552 1141.44 495.553 1141.11 495.887C1140.78 496.222 1140.78 496.764 1141.11 497.099Z" fill="#9B70EE"/>
<path d="M1170.63 564.371C1170.96 564.706 1171.5 564.706 1171.84 564.371C1172.17 564.037 1172.17 563.494 1171.84 563.159C1171.5 562.825 1170.96 562.825 1170.63 563.16C1170.29 563.494 1170.29 564.037 1170.63 564.371Z" fill="#9B70EE"/>
<path d="M1100.98 516.393C1101.31 516.728 1101.85 516.728 1102.19 516.393C1102.52 516.058 1102.52 515.516 1102.19 515.181C1101.85 514.847 1101.31 514.847 1100.98 515.182C1100.64 515.516 1100.64 516.059 1100.98 516.393Z" fill="#9B70EE"/>
<path d="M1133.04 531.476C1133.83 531.172 1134.22 530.286 1133.92 529.499C1133.61 528.711 1132.73 528.32 1131.94 528.624C1131.15 528.928 1130.76 529.814 1131.07 530.602C1131.37 531.389 1132.26 531.781 1133.04 531.476Z" fill="#9B70EE" fill-opacity="0.2"/>
<path d="M1050.52 608.033C1051.12 608.63 1052.09 608.63 1052.68 608.032C1053.28 607.435 1053.28 606.467 1052.68 605.87C1052.09 605.273 1051.12 605.273 1050.52 605.871C1049.93 606.468 1049.93 607.436 1050.52 608.033Z" fill="#9B70EE" fill-opacity="0.2"/>
<path d="M1068.51 554.283C1069.35 554.283 1070.04 553.598 1070.04 552.754C1070.04 551.909 1069.35 551.225 1068.51 551.225C1067.66 551.225 1066.98 551.91 1066.98 552.755C1066.98 553.599 1067.66 554.283 1068.51 554.283Z" fill="#9B70EE" fill-opacity="0.2"/>
<path d="M1051.86 459.62C1052.19 459.955 1052.74 459.955 1053.07 459.62C1053.4 459.285 1053.4 458.743 1053.07 458.408C1052.74 458.074 1052.19 458.074 1051.86 458.409C1051.53 458.743 1051.53 459.286 1051.86 459.62Z" fill="#9B70EE" fill-opacity="0.2"/>
<path d="M1002.37 542.841C1002.71 543.175 1003.25 543.175 1003.58 542.841C1003.92 542.506 1003.92 541.964 1003.58 541.629C1003.25 541.295 1002.71 541.295 1002.37 541.629C1002.04 541.964 1002.04 542.506 1002.37 542.841Z" fill="#9B70EE" fill-opacity="0.2"/>
<path d="M1090.4 643.484C1089.83 642.747 1089.83 642.616 1090.4 641.846C1089.67 642.42 1089.53 642.42 1088.77 641.847C1089.34 642.584 1089.34 642.715 1088.77 643.485C1089.5 642.911 1089.65 642.928 1090.4 643.484Z" fill="#9B70EE"/>
<path d="M965.506 613.445C964.933 612.708 964.933 612.577 965.506 611.807C964.769 612.381 964.638 612.381 963.869 611.808C964.442 612.545 964.442 612.676 963.869 613.446C964.606 612.872 964.753 612.889 965.506 613.445Z" fill="#9B70EE"/>
<path d="M963.871 672.16C963.298 671.423 963.298 671.292 963.872 670.522C963.135 671.095 963.004 671.095 962.234 670.522C962.807 671.259 962.807 671.39 962.234 672.16C962.971 671.586 963.118 671.603 963.871 672.16Z" fill="#9B70EE"/>
<path d="M1288.19 598.653C1287.61 597.916 1287.61 597.785 1288.19 597.015C1287.45 597.589 1287.32 597.589 1286.55 597.015C1287.12 597.753 1287.12 597.884 1286.55 598.654C1287.29 598.08 1287.43 598.097 1288.19 598.653Z" fill="#9B70EE"/>
<path d="M1410.57 630.391C1410 629.654 1410 629.523 1410.57 628.752C1409.84 629.326 1409.71 629.326 1408.94 628.753C1409.51 629.49 1409.51 629.621 1408.94 630.391C1409.67 629.817 1409.82 629.834 1410.57 630.391Z" fill="#9B70EE"/>
<path d="M1353.89 678.064C1353.32 677.327 1353.32 677.196 1353.89 676.426C1353.15 676.999 1353.02 676.999 1352.25 676.426C1352.82 677.163 1352.82 677.294 1352.25 678.064C1352.99 677.491 1353.14 677.507 1353.89 678.064Z" fill="#9B70EE"/>
<path d="M1214.75 717.626C1214.18 716.889 1214.18 716.758 1214.75 715.988C1214.01 716.561 1213.88 716.561 1213.11 715.988C1213.68 716.725 1213.68 716.856 1213.11 717.626C1213.85 717.053 1214 717.069 1214.75 717.626Z" fill="#9B70EE"/>
<path d="M1210.83 617.478C1210.26 616.741 1210.26 616.61 1210.83 615.839C1210.1 616.413 1209.96 616.413 1209.2 615.84C1209.77 616.577 1209.77 616.708 1209.2 617.478C1209.93 616.904 1210.08 616.921 1210.83 617.478Z" fill="#9B70EE"/>
<path d="M1246.18 632.013C1246.51 632.348 1247.05 632.348 1247.39 632.013C1247.72 631.678 1247.72 631.136 1247.39 630.801C1247.05 630.467 1246.51 630.467 1246.18 630.802C1245.84 631.136 1245.84 631.679 1246.18 632.013Z" fill="#9B70EE"/>
<path d="M1214.62 780.589C1214.95 780.924 1215.5 780.924 1215.83 780.589C1216.16 780.255 1216.16 779.712 1215.83 779.378C1215.5 779.043 1214.95 779.043 1214.62 779.378C1214.29 779.713 1214.29 780.255 1214.62 780.589Z" fill="#9B70EE"/>
<path d="M1312.86 600.437C1313.19 600.772 1313.73 600.772 1314.07 600.437C1314.4 600.102 1314.4 599.56 1314.07 599.225C1313.73 598.891 1313.19 598.891 1312.86 599.226C1312.52 599.56 1312.52 600.103 1312.86 600.437Z" fill="#9B70EE"/>
<path d="M1153.69 670.233C1154.02 670.567 1154.57 670.567 1154.9 670.232C1155.23 669.898 1155.24 669.355 1154.9 669.021C1154.57 668.686 1154.02 668.686 1153.69 669.021C1153.36 669.356 1153.36 669.898 1153.69 670.233Z" fill="#9B70EE"/>
<path d="M1350.75 609.465C1351.09 609.8 1351.63 609.799 1351.96 609.465C1352.3 609.13 1352.3 608.588 1351.96 608.253C1351.63 607.919 1351.09 607.919 1350.75 608.253C1350.42 608.588 1350.42 609.131 1350.75 609.465Z" fill="#9B70EE"/>
<path d="M1380.27 676.738C1380.6 677.072 1381.14 677.072 1381.48 676.738C1381.81 676.403 1381.81 675.861 1381.48 675.526C1381.14 675.192 1380.6 675.192 1380.27 675.526C1379.93 675.861 1379.93 676.403 1380.27 676.738Z" fill="#9B70EE"/>
<path d="M1310.62 628.759C1310.95 629.093 1311.5 629.093 1311.83 628.759C1312.16 628.424 1312.16 627.881 1311.83 627.547C1311.5 627.212 1310.95 627.213 1310.62 627.547C1310.29 627.882 1310.29 628.424 1310.62 628.759Z" fill="#9B70EE"/>
<path d="M1342.68 643.84C1343.47 643.536 1343.86 642.65 1343.56 641.863C1343.25 641.075 1342.37 640.683 1341.58 640.988C1340.79 641.292 1340.4 642.178 1340.71 642.965C1341.01 643.753 1341.89 644.145 1342.68 643.84Z" fill="#9B70EE" fill-opacity="0.2"/>
<path d="M1260.17 720.398C1260.76 720.995 1261.73 720.994 1262.33 720.397C1262.92 719.8 1262.92 718.832 1262.33 718.235C1261.73 717.638 1260.76 717.638 1260.17 718.235C1259.57 718.833 1259.57 719.801 1260.17 720.398Z" fill="#9B70EE" fill-opacity="0.2"/>
<path d="M1278.14 666.647C1278.99 666.647 1279.67 665.962 1279.67 665.118C1279.67 664.274 1278.99 663.589 1278.15 663.589C1277.3 663.59 1276.62 664.274 1276.62 665.119C1276.62 665.963 1277.3 666.648 1278.14 666.647Z" fill="#9B70EE" fill-opacity="0.2"/>
<path d="M1261.5 571.985C1261.83 572.319 1262.38 572.319 1262.71 571.984C1263.05 571.65 1263.05 571.107 1262.71 570.773C1262.38 570.438 1261.84 570.438 1261.5 570.773C1261.17 571.108 1261.17 571.65 1261.5 571.985Z" fill="#9B70EE" fill-opacity="0.2"/>
<path d="M1212.01 655.206C1212.35 655.54 1212.89 655.54 1213.22 655.205C1213.56 654.871 1213.56 654.328 1213.22 653.994C1212.89 653.659 1212.35 653.659 1212.01 653.994C1211.68 654.329 1211.68 654.871 1212.01 655.206Z" fill="#9B70EE" fill-opacity="0.2"/>
<path d="M1300.04 755.85C1299.47 755.113 1299.47 754.982 1300.04 754.211C1299.3 754.785 1299.17 754.785 1298.4 754.212C1298.98 754.949 1298.98 755.08 1298.4 755.85C1299.14 755.276 1299.29 755.293 1300.04 755.85Z" fill="#9B70EE"/>
<path d="M1175.14 725.811C1174.57 725.074 1174.57 724.943 1175.15 724.172C1174.41 724.746 1174.28 724.746 1173.51 724.173C1174.08 724.91 1174.08 725.041 1173.51 725.811C1174.24 725.237 1174.39 725.254 1175.14 725.811Z" fill="#9B70EE"/>
<path d="M1173.51 784.523C1172.93 783.786 1172.93 783.655 1173.51 782.885C1172.77 783.458 1172.64 783.458 1171.87 782.885C1172.44 783.622 1172.44 783.753 1171.87 784.523C1172.61 783.95 1172.75 783.966 1173.51 784.523Z" fill="#9B70EE"/>
</g>
</g>
<defs>
<filter id="filter0_f_6273_1265" x="207.615" y="-1007.81" width="1520.77" height="1877.25" filterUnits="userSpaceOnUse" color-interpolation-filters="sRGB">
<feFlood flood-opacity="0" result="BackgroundImageFix"/>
<feBlend mode="normal" in="SourceGraphic" in2="BackgroundImageFix" result="shape"/>
<feGaussianBlur stdDeviation="250" result="effect1_foregroundBlur_6273_1265"/>
</filter>
<filter id="filter1_f_6273_1265" x="-1080.04" y="113.629" width="2096.07" height="1650.67" filterUnits="userSpaceOnUse" color-interpolation-filters="sRGB">
<feFlood flood-opacity="0" result="BackgroundImageFix"/>
<feBlend mode="normal" in="SourceGraphic" in2="BackgroundImageFix" result="shape"/>
<feGaussianBlur stdDeviation="250" result="effect1_foregroundBlur_6273_1265"/>
</filter>
<radialGradient id="paint0_radial_6273_1265" cx="0" cy="0" r="1" gradientUnits="userSpaceOnUse" gradientTransform="translate(968 -69.1866) rotate(90) scale(260.385 438.628)">
<stop stop-color="#CEC9F5"/>
<stop offset="0.34375" stop-color="#9B70EE"/>
<stop offset="0.75" stop-color="#422288"/>
<stop offset="1" stop-color="#03020A"/>
</radialGradient>
<radialGradient id="paint1_radial_6273_1265" cx="0" cy="0" r="1" gradientUnits="userSpaceOnUse" gradientTransform="translate(-31.9999 938.962) rotate(90) scale(325.333 548.036)">
<stop stop-color="#CEC9F5"/>
<stop offset="0.34375" stop-color="#9B70EE"/>
<stop offset="0.75" stop-color="#422288"/>
<stop offset="1" stop-color="#03020A"/>
</radialGradient>
<radialGradient id="paint2_radial_6273_1265" cx="0" cy="0" r="1" gradientUnits="userSpaceOnUse" gradientTransform="translate(720 -4.50001) rotate(90.0281) scale(1019.5 4551.18)">
<stop stop-color="white" stop-opacity="0.05"/>
<stop offset="0.5" stop-color="white" stop-opacity="0"/>
<stop offset="1" stop-color="white" stop-opacity="0.05"/>
</radialGradient>
<clipPath id="clip0_6273_1265">
<rect width="1440" height="1015" fill="white"/>
</clipPath>
</defs>
</svg>
